G75*
G70*
%OFA0B0*%
%FSLAX24Y24*%
%IPPOS*%
%LPD*%
%AMOC8*
5,1,8,0,0,1.08239X$1,22.5*
%
%ADD10C,0.0120*%
%ADD11C,0.0040*%
%ADD12C,0.0060*%
%ADD13C,0.0080*%
%ADD14R,0.0079X0.0079*%
%ADD15C,0.0020*%
%ADD16C,0.0118*%
D10*
X007344Y002913D02*
X007346Y002929D01*
X007352Y002945D01*
X007361Y002959D01*
X007373Y002970D01*
X007387Y002978D01*
X007403Y002983D01*
X007419Y002984D01*
X007435Y002981D01*
X007450Y002974D01*
X007464Y002965D01*
X007474Y002952D01*
X007482Y002937D01*
X007486Y002921D01*
X007486Y002905D01*
X007482Y002889D01*
X007474Y002874D01*
X007464Y002861D01*
X007451Y002852D01*
X007435Y002845D01*
X007419Y002842D01*
X007403Y002843D01*
X007387Y002848D01*
X007373Y002856D01*
X007361Y002867D01*
X007352Y002881D01*
X007346Y002897D01*
X007344Y002913D01*
D11*
X001606Y000368D02*
X001572Y000402D01*
X001572Y000535D01*
X001606Y000568D01*
X001672Y000568D01*
X001706Y000535D01*
X001706Y000468D02*
X001639Y000468D01*
X001706Y000468D02*
X001706Y000402D01*
X001672Y000368D01*
X001606Y000368D01*
X001793Y000368D02*
X001793Y000568D01*
X001927Y000368D01*
X001927Y000568D01*
X002014Y000568D02*
X002114Y000568D01*
X002148Y000535D01*
X002148Y000402D01*
X002114Y000368D01*
X002014Y000368D01*
X002014Y000568D01*
X002892Y000535D02*
X003025Y000669D01*
X003025Y000702D01*
X002992Y000735D01*
X002925Y000735D01*
X002892Y000702D01*
X002892Y000535D02*
X003025Y000535D01*
X003113Y000535D02*
X003246Y000669D01*
X003246Y000702D01*
X003213Y000735D01*
X003146Y000735D01*
X003113Y000702D01*
X003113Y000535D02*
X003246Y000535D01*
X003554Y000535D02*
X003655Y000535D01*
X003688Y000569D01*
X003688Y000635D01*
X003655Y000669D01*
X003554Y000669D01*
X003554Y000469D01*
X003775Y000535D02*
X003775Y000735D01*
X003909Y000735D01*
X003842Y000635D02*
X003775Y000635D01*
X004364Y000672D02*
X004397Y000706D01*
X004464Y000706D01*
X004497Y000672D01*
X004497Y000639D01*
X004364Y000506D01*
X004497Y000506D01*
X004585Y000506D02*
X004585Y000539D01*
X004718Y000672D01*
X004718Y000706D01*
X004585Y000706D01*
X005027Y000706D02*
X005127Y000706D01*
X005160Y000672D01*
X005160Y000606D01*
X005127Y000572D01*
X005027Y000572D01*
X005027Y000506D02*
X005027Y000706D01*
X005093Y000572D02*
X005160Y000506D01*
X005427Y001806D02*
X005560Y001806D01*
X005427Y001806D02*
X005427Y002006D01*
X006073Y002558D02*
X006206Y002692D01*
X006206Y002725D01*
X006173Y002758D01*
X006106Y002758D01*
X006073Y002725D01*
X006073Y002558D02*
X006206Y002558D01*
X006294Y002558D02*
X006427Y002692D01*
X006427Y002725D01*
X006394Y002758D01*
X006327Y002758D01*
X006294Y002725D01*
X006294Y002558D02*
X006427Y002558D01*
X006515Y002558D02*
X006515Y002758D01*
X006615Y002758D01*
X006648Y002725D01*
X006648Y002658D01*
X006615Y002625D01*
X006515Y002625D01*
X006581Y002625D02*
X006648Y002558D01*
X007035Y002981D02*
X007102Y002914D01*
X007235Y002914D01*
X007135Y002914D02*
X007135Y003047D01*
X007102Y003047D02*
X007235Y003047D01*
X007102Y003047D02*
X007035Y002981D01*
X007035Y003135D02*
X007035Y003268D01*
X007035Y003201D02*
X007235Y003201D01*
X007451Y003106D02*
X007451Y002949D01*
X007608Y002949D01*
X007235Y003356D02*
X007102Y003356D01*
X007102Y003389D01*
X007135Y003422D01*
X007102Y003456D01*
X007135Y003489D01*
X007235Y003489D01*
X007235Y003422D02*
X007135Y003422D01*
X007135Y003577D02*
X007102Y003610D01*
X007102Y003677D01*
X007135Y003710D01*
X007168Y003710D01*
X007168Y003577D01*
X007135Y003577D02*
X007202Y003577D01*
X007235Y003610D01*
X007235Y003677D01*
X007202Y003798D02*
X007135Y003798D01*
X007102Y003831D01*
X007102Y003931D01*
X007268Y003931D01*
X007302Y003898D01*
X007302Y003864D01*
X007235Y003831D02*
X007235Y003931D01*
X007202Y004019D02*
X007168Y004052D01*
X007168Y004152D01*
X007135Y004152D02*
X007235Y004152D01*
X007235Y004052D01*
X007202Y004019D01*
X007102Y004052D02*
X007102Y004119D01*
X007135Y004152D01*
X007102Y004240D02*
X007068Y004240D01*
X007035Y004273D01*
X007035Y004340D01*
X007068Y004373D01*
X007102Y004373D01*
X007135Y004340D01*
X007135Y004273D01*
X007102Y004240D01*
X007135Y004273D02*
X007168Y004240D01*
X007202Y004240D01*
X007235Y004273D01*
X007235Y004340D01*
X007202Y004373D01*
X007168Y004373D01*
X007135Y004340D01*
X007202Y004461D02*
X007035Y004461D01*
X007035Y004594D02*
X007202Y004594D01*
X007235Y004561D01*
X007235Y004494D01*
X007202Y004461D01*
X007235Y004682D02*
X007102Y004815D01*
X007068Y004815D01*
X007035Y004782D01*
X007035Y004715D01*
X007068Y004682D01*
X007235Y004682D02*
X007235Y004815D01*
X007451Y004878D02*
X007608Y004878D01*
X007451Y004878D02*
X007451Y004720D01*
X009222Y004878D02*
X009380Y004878D01*
X009380Y004720D01*
X009935Y004783D02*
X010069Y004783D01*
X010002Y004783D02*
X010002Y004583D01*
X010156Y004583D02*
X010290Y004783D01*
X010377Y004783D02*
X010477Y004783D01*
X010511Y004750D01*
X010511Y004617D01*
X010477Y004583D01*
X010377Y004583D01*
X010377Y004783D01*
X010290Y004583D02*
X010156Y004783D01*
X010396Y005068D02*
X010530Y005202D01*
X010530Y005235D01*
X010496Y005268D01*
X010429Y005268D01*
X010396Y005235D01*
X010838Y005202D02*
X010971Y005068D01*
X010838Y005068D02*
X010971Y005202D01*
X011280Y005202D02*
X011347Y005268D01*
X011347Y005068D01*
X011413Y005068D02*
X011280Y005068D01*
X011501Y005068D02*
X011501Y005268D01*
X011601Y005202D02*
X011501Y005135D01*
X011601Y005068D01*
X010530Y005068D02*
X010396Y005068D01*
X009804Y005308D02*
X009804Y005508D01*
X009904Y005508D01*
X009937Y005475D01*
X009937Y005408D01*
X009904Y005375D01*
X009804Y005375D01*
X009716Y005375D02*
X009716Y005342D01*
X009683Y005308D01*
X009616Y005308D01*
X009583Y005342D01*
X009616Y005408D02*
X009583Y005442D01*
X009583Y005475D01*
X009616Y005508D01*
X009683Y005508D01*
X009716Y005475D01*
X009683Y005408D02*
X009716Y005375D01*
X009683Y005408D02*
X009616Y005408D01*
X009502Y005308D02*
X009435Y005308D01*
X009469Y005308D02*
X009469Y005508D01*
X009502Y005508D02*
X009435Y005508D01*
X008105Y005785D02*
X007971Y005785D01*
X007971Y005585D01*
X007884Y005585D02*
X007884Y005685D01*
X007851Y005719D01*
X007750Y005719D01*
X007750Y005585D01*
X007971Y005685D02*
X008038Y005685D01*
X007442Y005619D02*
X007409Y005585D01*
X007342Y005585D01*
X007308Y005619D01*
X007442Y005752D01*
X007442Y005619D01*
X007442Y005752D02*
X007409Y005785D01*
X007342Y005785D01*
X007308Y005752D01*
X007308Y005619D01*
X007221Y005619D02*
X007188Y005585D01*
X007121Y005585D01*
X007087Y005619D01*
X007221Y005752D01*
X007221Y005619D01*
X007221Y005752D02*
X007188Y005785D01*
X007121Y005785D01*
X007087Y005752D01*
X007087Y005619D01*
X007000Y005585D02*
X006866Y005585D01*
X006933Y005585D02*
X006933Y005785D01*
X006866Y005719D01*
X005379Y005135D02*
X005246Y005135D01*
X005246Y004935D01*
X005158Y004935D02*
X005158Y005069D01*
X005246Y005035D02*
X005313Y005035D01*
X005158Y004935D02*
X005058Y004935D01*
X005025Y004969D01*
X005025Y005069D01*
X004937Y004935D02*
X004804Y004935D01*
X004871Y004935D02*
X004871Y005135D01*
X004804Y005069D01*
X004794Y004158D02*
X004760Y004125D01*
X004794Y004158D02*
X004860Y004158D01*
X004894Y004125D01*
X004894Y004092D01*
X004760Y003958D01*
X004894Y003958D01*
X004981Y003958D02*
X005115Y004092D01*
X005115Y004125D01*
X005081Y004158D01*
X005015Y004158D01*
X004981Y004125D01*
X004981Y003958D02*
X005115Y003958D01*
X005202Y003958D02*
X005202Y004158D01*
X005302Y004158D01*
X005336Y004125D01*
X005336Y004058D01*
X005302Y004025D01*
X005202Y004025D01*
X005269Y004025D02*
X005336Y003958D01*
X007202Y003798D02*
X007235Y003831D01*
X009380Y003106D02*
X009380Y002949D01*
X009222Y002949D01*
X009935Y003183D02*
X009935Y003383D01*
X010035Y003383D01*
X010069Y003350D01*
X010069Y003283D01*
X010035Y003250D01*
X009935Y003250D01*
X010156Y003183D02*
X010223Y003250D01*
X010290Y003183D01*
X010290Y003383D01*
X010377Y003383D02*
X010477Y003383D01*
X010511Y003350D01*
X010511Y003283D01*
X010477Y003250D01*
X010377Y003250D01*
X010377Y003183D02*
X010377Y003383D01*
X010444Y003250D02*
X010511Y003183D01*
X010156Y003183D02*
X010156Y003383D01*
X010156Y003833D02*
X010290Y004033D01*
X010377Y004033D02*
X010477Y004033D01*
X010511Y004000D01*
X010511Y003867D01*
X010477Y003833D01*
X010377Y003833D01*
X010377Y004033D01*
X010290Y003833D02*
X010156Y004033D01*
X010069Y004000D02*
X010035Y004033D01*
X009935Y004033D01*
X009935Y003833D01*
X009935Y003900D02*
X010035Y003900D01*
X010069Y003933D01*
X010069Y004000D01*
X010002Y003900D02*
X010069Y003833D01*
X012123Y002754D02*
X012189Y002821D01*
X012189Y002621D01*
X012123Y002621D02*
X012256Y002621D01*
X012565Y002621D02*
X012565Y002821D01*
X012665Y002754D02*
X012565Y002687D01*
X012665Y002621D01*
X013745Y002604D02*
X013945Y002738D01*
X013745Y002738D01*
X013745Y002825D02*
X013745Y002925D01*
X013778Y002959D01*
X013912Y002959D01*
X013945Y002925D01*
X013945Y002825D01*
X013745Y002825D01*
X013745Y002604D02*
X013945Y002604D01*
X013912Y002517D02*
X013845Y002517D01*
X013845Y002450D01*
X013778Y002517D02*
X013745Y002483D01*
X013745Y002417D01*
X013778Y002383D01*
X013912Y002383D01*
X013945Y002417D01*
X013945Y002483D01*
X013912Y002517D01*
X013016Y002079D02*
X012883Y002079D01*
X012883Y001879D01*
X012795Y001912D02*
X012762Y001879D01*
X012662Y001879D01*
X012662Y001812D02*
X012662Y002012D01*
X012762Y002012D01*
X012795Y001979D01*
X012795Y001912D01*
X012883Y001979D02*
X012950Y001979D01*
X012353Y002012D02*
X012220Y001879D01*
X012353Y001879D01*
X012353Y002012D02*
X012353Y002046D01*
X012320Y002079D01*
X012253Y002079D01*
X012220Y002046D01*
X012132Y002046D02*
X012099Y002079D01*
X012032Y002079D01*
X011999Y002046D01*
X012132Y002046D02*
X012132Y002012D01*
X011999Y001879D01*
X012132Y001879D01*
X011261Y001808D02*
X011261Y002008D01*
X011194Y001942D01*
X011127Y002008D01*
X011127Y001808D01*
X010819Y001808D02*
X010685Y001808D01*
X010752Y001808D02*
X010752Y002008D01*
X010685Y001942D01*
X010736Y002408D02*
X010603Y002408D01*
X010736Y002542D01*
X010603Y002542D01*
X010515Y002508D02*
X010382Y002508D01*
X010382Y002408D02*
X010382Y002608D01*
X010294Y002608D02*
X010294Y002408D01*
X010161Y002408D02*
X010161Y002608D01*
X010227Y002542D01*
X010294Y002608D01*
X010515Y002608D02*
X010515Y002408D01*
X009852Y002442D02*
X009852Y002475D01*
X009819Y002508D01*
X009719Y002508D01*
X009719Y002442D01*
X009752Y002408D01*
X009819Y002408D01*
X009852Y002442D01*
X009785Y002575D02*
X009719Y002508D01*
X009785Y002575D02*
X009852Y002608D01*
X009564Y002608D02*
X009564Y002408D01*
X009498Y002408D02*
X009631Y002408D01*
X009498Y002542D02*
X009564Y002608D01*
X013745Y001925D02*
X013745Y001825D01*
X013945Y001825D01*
X013945Y001925D01*
X013912Y001959D01*
X013778Y001959D01*
X013745Y001925D01*
X013745Y001738D02*
X013945Y001738D01*
X013745Y001604D01*
X013945Y001604D01*
X013912Y001517D02*
X013845Y001517D01*
X013845Y001450D01*
X013778Y001517D02*
X013745Y001483D01*
X013745Y001417D01*
X013778Y001383D01*
X013912Y001383D01*
X013945Y001417D01*
X013945Y001483D01*
X013912Y001517D01*
X013845Y003383D02*
X013845Y003517D01*
X013845Y003604D02*
X013812Y003671D01*
X013812Y003704D01*
X013845Y003738D01*
X013912Y003738D01*
X013945Y003704D01*
X013945Y003638D01*
X013912Y003604D01*
X013845Y003604D02*
X013745Y003604D01*
X013745Y003738D01*
X013745Y003825D02*
X013879Y003825D01*
X013945Y003892D01*
X013879Y003959D01*
X013745Y003959D01*
X013745Y004383D02*
X013745Y004517D01*
X013745Y004450D02*
X013945Y004450D01*
X013945Y004604D02*
X013745Y004738D01*
X013745Y004825D02*
X013745Y004925D01*
X013778Y004959D01*
X013912Y004959D01*
X013945Y004925D01*
X013945Y004825D01*
X013745Y004825D01*
X013945Y004738D02*
X013745Y004604D01*
X013745Y005321D02*
X013745Y005421D01*
X013778Y005454D01*
X013845Y005454D01*
X013879Y005421D01*
X013879Y005321D01*
X013945Y005321D02*
X013745Y005321D01*
X013879Y005387D02*
X013945Y005454D01*
X013945Y005542D02*
X013745Y005675D01*
X013745Y005763D02*
X013745Y005863D01*
X013778Y005896D01*
X013912Y005896D01*
X013945Y005863D01*
X013945Y005763D01*
X013745Y005763D01*
X013945Y005675D02*
X013745Y005542D01*
X013778Y006446D02*
X013912Y006446D01*
X013945Y006479D01*
X013945Y006546D01*
X013912Y006579D01*
X013778Y006579D02*
X013745Y006546D01*
X013745Y006479D01*
X013778Y006446D01*
X013745Y006667D02*
X013745Y006800D01*
X013745Y006733D02*
X013945Y006733D01*
X013912Y006888D02*
X013945Y006921D01*
X013945Y006988D01*
X013912Y007021D01*
X013879Y007021D01*
X013845Y006988D01*
X013845Y006921D01*
X013812Y006888D01*
X013778Y006888D01*
X013745Y006921D01*
X013745Y006988D01*
X013778Y007021D01*
X013323Y006567D02*
X013223Y006500D01*
X013323Y006433D01*
X013223Y006433D02*
X013223Y006633D01*
X012915Y006600D02*
X012915Y006467D01*
X012881Y006433D01*
X012815Y006433D01*
X012781Y006467D01*
X012915Y006600D01*
X012881Y006633D01*
X012815Y006633D01*
X012781Y006600D01*
X012781Y006467D01*
X012694Y006433D02*
X012560Y006433D01*
X012627Y006433D02*
X012627Y006633D01*
X012560Y006567D01*
X006424Y006933D02*
X006424Y007067D01*
X006357Y007133D01*
X006290Y007067D01*
X006290Y006933D01*
X006203Y006933D02*
X006203Y007033D01*
X006169Y007067D01*
X006136Y007033D01*
X006136Y006933D01*
X006069Y006933D02*
X006069Y007067D01*
X006102Y007067D01*
X006136Y007033D01*
X006290Y007033D02*
X006424Y007033D01*
X005761Y006967D02*
X005727Y006933D01*
X005661Y006933D01*
X005627Y006967D01*
X005761Y007100D01*
X005761Y006967D01*
X005761Y007100D02*
X005727Y007133D01*
X005661Y007133D01*
X005627Y007100D01*
X005627Y006967D01*
X005540Y006967D02*
X005506Y006933D01*
X005440Y006933D01*
X005406Y006967D01*
X005540Y007100D01*
X005540Y006967D01*
X005540Y007100D02*
X005506Y007133D01*
X005440Y007133D01*
X005406Y007100D01*
X005406Y006967D01*
X005319Y006967D02*
X005285Y006933D01*
X005219Y006933D01*
X005185Y006967D01*
X005185Y007033D02*
X005252Y007067D01*
X005285Y007067D01*
X005319Y007033D01*
X005319Y006967D01*
X005185Y007033D02*
X005185Y007133D01*
X005319Y007133D01*
X013778Y003450D02*
X013912Y003450D01*
D12*
X014165Y003413D02*
X014165Y003913D01*
X014415Y004163D01*
X014165Y004413D01*
X014165Y004913D01*
X014415Y005163D01*
X014165Y005413D01*
X014165Y005913D01*
X014415Y006163D01*
X014165Y006413D01*
X014165Y006913D01*
X014415Y007163D01*
X014915Y007163D01*
X015165Y006913D01*
X015165Y006413D01*
X014915Y006163D01*
X015165Y005913D01*
X015165Y005413D01*
X014915Y005163D01*
X015165Y004913D01*
X015165Y004413D01*
X014915Y004163D01*
X015165Y003913D01*
X015165Y003413D01*
X014915Y003163D01*
X015165Y002913D01*
X015165Y002413D01*
X014915Y002163D01*
X015165Y001913D01*
X015165Y001413D01*
X014915Y001163D01*
X014415Y001163D01*
X014165Y001413D01*
X014165Y001913D01*
X014415Y002163D01*
X014165Y002413D01*
X014165Y002913D01*
X014415Y003163D01*
X014915Y003163D01*
X014415Y003163D02*
X014165Y003413D01*
X014415Y004163D02*
X014915Y004163D01*
X014915Y005163D02*
X014415Y005163D01*
X014415Y006163D02*
X014915Y006163D01*
X008997Y005893D02*
X008770Y005893D01*
X008884Y005893D02*
X008884Y006234D01*
X008770Y006120D01*
X009003Y002438D02*
X006703Y002438D01*
X005276Y002493D02*
X005276Y002333D01*
X004804Y002333D02*
X004804Y002493D01*
X006703Y002438D02*
X006644Y002436D01*
X006586Y002430D01*
X006527Y002421D01*
X006470Y002407D01*
X006414Y002390D01*
X006359Y002369D01*
X006305Y002345D01*
X006253Y002317D01*
X006203Y002286D01*
X006155Y002252D01*
X006110Y002215D01*
X006067Y002174D01*
X006026Y002131D01*
X005989Y002086D01*
X005955Y002038D01*
X005924Y001988D01*
X005896Y001936D01*
X005872Y001882D01*
X005851Y001827D01*
X005834Y001771D01*
X005820Y001714D01*
X005811Y001655D01*
X005805Y001597D01*
X005803Y001538D01*
X005805Y001479D01*
X005811Y001421D01*
X005820Y001362D01*
X005834Y001305D01*
X005851Y001249D01*
X005872Y001194D01*
X005896Y001140D01*
X005924Y001088D01*
X005955Y001038D01*
X005989Y000990D01*
X006026Y000945D01*
X006067Y000902D01*
X006110Y000861D01*
X006155Y000824D01*
X006203Y000790D01*
X006253Y000759D01*
X006305Y000731D01*
X006359Y000707D01*
X006414Y000686D01*
X006470Y000669D01*
X006527Y000655D01*
X006586Y000646D01*
X006644Y000640D01*
X006703Y000638D01*
X009003Y000638D01*
X009062Y000640D01*
X009120Y000646D01*
X009179Y000655D01*
X009236Y000669D01*
X009292Y000686D01*
X009347Y000707D01*
X009401Y000731D01*
X009453Y000759D01*
X009503Y000790D01*
X009551Y000824D01*
X009596Y000861D01*
X009639Y000902D01*
X009680Y000945D01*
X009717Y000990D01*
X009751Y001038D01*
X009782Y001088D01*
X009810Y001140D01*
X009834Y001194D01*
X009855Y001249D01*
X009872Y001305D01*
X009886Y001362D01*
X009895Y001421D01*
X009901Y001479D01*
X009903Y001538D01*
X009901Y001597D01*
X009895Y001655D01*
X009886Y001714D01*
X009872Y001771D01*
X009855Y001827D01*
X009834Y001882D01*
X009810Y001936D01*
X009782Y001988D01*
X009751Y002038D01*
X009717Y002086D01*
X009680Y002131D01*
X009639Y002174D01*
X009596Y002215D01*
X009551Y002252D01*
X009503Y002286D01*
X009453Y002317D01*
X009401Y002345D01*
X009347Y002369D01*
X009292Y002390D01*
X009236Y002407D01*
X009179Y002421D01*
X009120Y002430D01*
X009062Y002436D01*
X009003Y002438D01*
X014415Y002163D02*
X014915Y002163D01*
X002565Y001401D02*
X002565Y000801D01*
X002563Y000784D01*
X002559Y000767D01*
X002552Y000751D01*
X002542Y000737D01*
X002529Y000724D01*
X002515Y000714D01*
X002499Y000707D01*
X002482Y000703D01*
X002465Y000701D01*
X001365Y000701D01*
X001348Y000703D01*
X001331Y000707D01*
X001315Y000714D01*
X001301Y000724D01*
X001288Y000737D01*
X001278Y000751D01*
X001271Y000767D01*
X001267Y000784D01*
X001265Y000801D01*
X001265Y001401D01*
X001267Y001418D01*
X001271Y001435D01*
X001278Y001451D01*
X001288Y001465D01*
X001301Y001478D01*
X001315Y001488D01*
X001331Y001495D01*
X001348Y001499D01*
X001365Y001501D01*
X002465Y001501D01*
X002482Y001499D01*
X002499Y001495D01*
X002515Y001488D01*
X002529Y001478D01*
X002542Y001465D01*
X002552Y001451D01*
X002559Y001435D01*
X002563Y001418D01*
X002565Y001401D01*
D13*
X002528Y002542D02*
X003355Y002542D01*
X004339Y002818D02*
X004339Y003172D01*
X004339Y004904D02*
X004339Y005259D01*
X003355Y005534D02*
X002528Y005534D01*
X009165Y005913D02*
X009165Y007413D01*
X009415Y007663D01*
X009915Y007663D01*
X010165Y007413D01*
X010165Y005913D01*
X010415Y005663D01*
X010915Y005663D01*
X011165Y005913D01*
X011165Y007413D01*
X011415Y007663D01*
X011915Y007663D01*
X012165Y007413D01*
X012165Y005913D01*
X011915Y005663D01*
X011415Y005663D01*
X011165Y005913D01*
X010165Y005913D02*
X009915Y005663D01*
X009415Y005663D01*
X009165Y005913D01*
X011728Y005163D02*
X011853Y005163D01*
X012040Y004976D01*
X012040Y004663D01*
X012165Y004538D01*
X012103Y004538D01*
X012165Y004538D02*
X012165Y004601D01*
X012103Y005101D02*
X012165Y005163D01*
X011853Y005163D01*
X012103Y005226D02*
X012165Y005163D01*
X012165Y005163D01*
X012103Y005226D01*
X012103Y005226D01*
X011165Y007413D02*
X010915Y007663D01*
X010415Y007663D01*
X010165Y007413D01*
D14*
X011251Y004663D03*
X011251Y003913D03*
X011251Y003163D03*
D15*
X002605Y006273D02*
X002465Y006273D01*
X002465Y006343D01*
X002488Y006367D01*
X002535Y006367D01*
X002559Y006343D01*
X002559Y006273D01*
X002582Y006421D02*
X002605Y006444D01*
X002605Y006491D01*
X002582Y006514D01*
X002535Y006514D01*
X002535Y006467D01*
X002488Y006421D02*
X002582Y006421D01*
X002488Y006421D02*
X002465Y006444D01*
X002465Y006491D01*
X002488Y006514D01*
X002465Y006568D02*
X002465Y006638D01*
X002488Y006661D01*
X002512Y006661D01*
X002535Y006638D01*
X002535Y006568D01*
X002535Y006638D02*
X002559Y006661D01*
X002582Y006661D01*
X002605Y006638D01*
X002605Y006568D01*
X002465Y006568D01*
X002512Y006715D02*
X002465Y006762D01*
X002605Y006762D01*
X002605Y006715D02*
X002605Y006809D01*
X002582Y006863D02*
X002488Y006956D01*
X002582Y006956D01*
X002605Y006933D01*
X002605Y006886D01*
X002582Y006863D01*
X002488Y006863D01*
X002465Y006886D01*
X002465Y006933D01*
X002488Y006956D01*
X002512Y007010D02*
X002465Y007057D01*
X002605Y007057D01*
X002605Y007103D02*
X002605Y007010D01*
X002582Y007157D02*
X002488Y007251D01*
X002582Y007251D01*
X002605Y007227D01*
X002605Y007181D01*
X002582Y007157D01*
X002488Y007157D01*
X002465Y007181D01*
X002465Y007227D01*
X002488Y007251D01*
X002535Y007304D02*
X002535Y007375D01*
X002559Y007398D01*
X002582Y007398D01*
X002605Y007375D01*
X002605Y007328D01*
X002582Y007304D01*
X002535Y007304D01*
X002488Y007351D01*
X002465Y007398D01*
X002488Y007452D02*
X002465Y007475D01*
X002465Y007522D01*
X002488Y007545D01*
X002582Y007452D01*
X002605Y007475D01*
X002605Y007522D01*
X002582Y007545D01*
X002488Y007545D01*
X002488Y007599D02*
X002465Y007622D01*
X002465Y007669D01*
X002488Y007693D01*
X002512Y007693D01*
X002535Y007669D01*
X002559Y007693D01*
X002582Y007693D01*
X002605Y007669D01*
X002605Y007622D01*
X002582Y007599D01*
X002535Y007646D02*
X002535Y007669D01*
X002535Y007746D02*
X002512Y007770D01*
X002512Y007840D01*
X002559Y007816D02*
X002559Y007770D01*
X002535Y007746D01*
X002605Y007746D02*
X002605Y007816D01*
X002582Y007840D01*
X002559Y007816D01*
X002582Y007452D02*
X002488Y007452D01*
D16*
X007559Y003057D03*
M02*
