G75*
G70*
%OFA0B0*%
%FSLAX24Y24*%
%IPPOS*%
%LPD*%
%AMOC8*
5,1,8,0,0,1.08239X$1,22.5*
%
%ADD10C,0.0000*%
%ADD11R,0.0472X0.0472*%
%ADD12C,0.0560*%
%ADD13R,0.0512X0.0630*%
%ADD14C,0.0700*%
%ADD15R,0.0560X0.0560*%
%ADD16C,0.0640*%
%ADD17R,0.0984X0.0197*%
%ADD18R,0.0984X0.0787*%
%ADD19R,0.0748X0.1339*%
%ADD20R,0.0394X0.0433*%
%ADD21C,0.0035*%
%ADD22C,0.0252*%
%ADD23R,0.0500X0.0500*%
%ADD24R,0.0460X0.0630*%
%ADD25C,0.0397*%
%ADD26C,0.0240*%
%ADD27C,0.0100*%
%ADD28C,0.0120*%
%ADD29C,0.0080*%
%ADD30C,0.0160*%
D10*
X001665Y000226D02*
X014665Y000226D01*
X014725Y000228D01*
X014786Y000233D01*
X014845Y000242D01*
X014904Y000255D01*
X014963Y000271D01*
X015020Y000291D01*
X015075Y000314D01*
X015130Y000341D01*
X015182Y000370D01*
X015233Y000403D01*
X015282Y000439D01*
X015328Y000477D01*
X015372Y000519D01*
X015414Y000563D01*
X015452Y000609D01*
X015488Y000658D01*
X015521Y000709D01*
X015550Y000761D01*
X015577Y000816D01*
X015600Y000871D01*
X015620Y000928D01*
X015636Y000987D01*
X015649Y001046D01*
X015658Y001105D01*
X015663Y001166D01*
X015665Y001226D01*
X015665Y006913D01*
X015663Y006973D01*
X015658Y007034D01*
X015649Y007093D01*
X015636Y007152D01*
X015620Y007211D01*
X015600Y007268D01*
X015577Y007323D01*
X015550Y007378D01*
X015521Y007430D01*
X015488Y007481D01*
X015452Y007530D01*
X015414Y007576D01*
X015372Y007620D01*
X015328Y007662D01*
X015282Y007700D01*
X015233Y007736D01*
X015182Y007769D01*
X015130Y007798D01*
X015075Y007825D01*
X015020Y007848D01*
X014963Y007868D01*
X014904Y007884D01*
X014845Y007897D01*
X014786Y007906D01*
X014725Y007911D01*
X014665Y007913D01*
X001665Y007913D01*
X001605Y007911D01*
X001544Y007906D01*
X001485Y007897D01*
X001426Y007884D01*
X001367Y007868D01*
X001310Y007848D01*
X001255Y007825D01*
X001200Y007798D01*
X001148Y007769D01*
X001097Y007736D01*
X001048Y007700D01*
X001002Y007662D01*
X000958Y007620D01*
X000916Y007576D01*
X000878Y007530D01*
X000842Y007481D01*
X000809Y007430D01*
X000780Y007378D01*
X000753Y007323D01*
X000730Y007268D01*
X000710Y007211D01*
X000694Y007152D01*
X000681Y007093D01*
X000672Y007034D01*
X000667Y006973D01*
X000665Y006913D01*
X000665Y001226D01*
X000667Y001166D01*
X000672Y001105D01*
X000681Y001046D01*
X000694Y000987D01*
X000710Y000928D01*
X000730Y000871D01*
X000753Y000816D01*
X000780Y000761D01*
X000809Y000709D01*
X000842Y000658D01*
X000878Y000609D01*
X000916Y000563D01*
X000958Y000519D01*
X001002Y000477D01*
X001048Y000439D01*
X001097Y000403D01*
X001148Y000370D01*
X001200Y000341D01*
X001255Y000314D01*
X001310Y000291D01*
X001367Y000271D01*
X001426Y000255D01*
X001485Y000242D01*
X001544Y000233D01*
X001605Y000228D01*
X001665Y000226D01*
X002863Y003172D02*
X002865Y003198D01*
X002871Y003224D01*
X002881Y003249D01*
X002894Y003272D01*
X002910Y003292D01*
X002930Y003310D01*
X002952Y003325D01*
X002975Y003337D01*
X003001Y003345D01*
X003027Y003349D01*
X003053Y003349D01*
X003079Y003345D01*
X003105Y003337D01*
X003129Y003325D01*
X003150Y003310D01*
X003170Y003292D01*
X003186Y003272D01*
X003199Y003249D01*
X003209Y003224D01*
X003215Y003198D01*
X003217Y003172D01*
X003215Y003146D01*
X003209Y003120D01*
X003199Y003095D01*
X003186Y003072D01*
X003170Y003052D01*
X003150Y003034D01*
X003128Y003019D01*
X003105Y003007D01*
X003079Y002999D01*
X003053Y002995D01*
X003027Y002995D01*
X003001Y002999D01*
X002975Y003007D01*
X002951Y003019D01*
X002930Y003034D01*
X002910Y003052D01*
X002894Y003072D01*
X002881Y003095D01*
X002871Y003120D01*
X002865Y003146D01*
X002863Y003172D01*
X002863Y004904D02*
X002865Y004930D01*
X002871Y004956D01*
X002881Y004981D01*
X002894Y005004D01*
X002910Y005024D01*
X002930Y005042D01*
X002952Y005057D01*
X002975Y005069D01*
X003001Y005077D01*
X003027Y005081D01*
X003053Y005081D01*
X003079Y005077D01*
X003105Y005069D01*
X003129Y005057D01*
X003150Y005042D01*
X003170Y005024D01*
X003186Y005004D01*
X003199Y004981D01*
X003209Y004956D01*
X003215Y004930D01*
X003217Y004904D01*
X003215Y004878D01*
X003209Y004852D01*
X003199Y004827D01*
X003186Y004804D01*
X003170Y004784D01*
X003150Y004766D01*
X003128Y004751D01*
X003105Y004739D01*
X003079Y004731D01*
X003053Y004727D01*
X003027Y004727D01*
X003001Y004731D01*
X002975Y004739D01*
X002951Y004751D01*
X002930Y004766D01*
X002910Y004784D01*
X002894Y004804D01*
X002881Y004827D01*
X002871Y004852D01*
X002865Y004878D01*
X002863Y004904D01*
D11*
X010877Y004663D03*
X011704Y004663D03*
X011704Y003913D03*
X010877Y003913D03*
X010877Y003163D03*
X011704Y003163D03*
D12*
X008803Y001538D03*
X006903Y001538D03*
D13*
X005227Y001163D03*
X004479Y001163D03*
X003721Y001138D03*
X002934Y001138D03*
X005741Y003163D03*
X006489Y003163D03*
X006489Y004063D03*
X005741Y004063D03*
X005721Y005038D03*
X006509Y005038D03*
X006509Y005813D03*
X005721Y005813D03*
X012541Y005913D03*
X013289Y005913D03*
X013289Y005038D03*
X012541Y005038D03*
X012541Y004163D03*
X013289Y004163D03*
X013289Y003288D03*
X012541Y003288D03*
X012171Y001351D03*
X012959Y001351D03*
X011352Y001351D03*
X010604Y001351D03*
D14*
X014665Y001663D03*
X014665Y002663D03*
X014665Y003663D03*
X014665Y004663D03*
X014665Y005663D03*
X014665Y006663D03*
D15*
X009665Y006163D03*
D16*
X010665Y006163D03*
X011665Y006163D03*
X011665Y007163D03*
X010665Y007163D03*
X009665Y007163D03*
D17*
X004024Y004668D03*
X004024Y004353D03*
X004024Y004038D03*
X004024Y003723D03*
X004024Y003408D03*
D18*
X004024Y002267D03*
X001859Y002267D03*
X001859Y005810D03*
X004024Y005810D03*
D19*
X007022Y007038D03*
X008558Y007038D03*
D20*
X004228Y006766D03*
X002978Y006766D03*
X002978Y007435D03*
X004228Y007435D03*
D21*
X007684Y004920D02*
X007684Y004718D01*
X007684Y004920D02*
X007768Y004920D01*
X007768Y004718D01*
X007684Y004718D01*
X007684Y004752D02*
X007768Y004752D01*
X007768Y004786D02*
X007684Y004786D01*
X007684Y004820D02*
X007768Y004820D01*
X007768Y004854D02*
X007684Y004854D01*
X007684Y004888D02*
X007768Y004888D01*
X007881Y004920D02*
X007881Y004718D01*
X007881Y004920D02*
X007965Y004920D01*
X007965Y004718D01*
X007881Y004718D01*
X007881Y004752D02*
X007965Y004752D01*
X007965Y004786D02*
X007881Y004786D01*
X007881Y004820D02*
X007965Y004820D01*
X007965Y004854D02*
X007881Y004854D01*
X007881Y004888D02*
X007965Y004888D01*
X008078Y004920D02*
X008078Y004718D01*
X008078Y004920D02*
X008162Y004920D01*
X008162Y004718D01*
X008078Y004718D01*
X008078Y004752D02*
X008162Y004752D01*
X008162Y004786D02*
X008078Y004786D01*
X008078Y004820D02*
X008162Y004820D01*
X008162Y004854D02*
X008078Y004854D01*
X008078Y004888D02*
X008162Y004888D01*
X008275Y004920D02*
X008275Y004718D01*
X008275Y004920D02*
X008359Y004920D01*
X008359Y004718D01*
X008275Y004718D01*
X008275Y004752D02*
X008359Y004752D01*
X008359Y004786D02*
X008275Y004786D01*
X008275Y004820D02*
X008359Y004820D01*
X008359Y004854D02*
X008275Y004854D01*
X008275Y004888D02*
X008359Y004888D01*
X008472Y004920D02*
X008472Y004718D01*
X008472Y004920D02*
X008556Y004920D01*
X008556Y004718D01*
X008472Y004718D01*
X008472Y004752D02*
X008556Y004752D01*
X008556Y004786D02*
X008472Y004786D01*
X008472Y004820D02*
X008556Y004820D01*
X008556Y004854D02*
X008472Y004854D01*
X008472Y004888D02*
X008556Y004888D01*
X008668Y004920D02*
X008668Y004718D01*
X008668Y004920D02*
X008752Y004920D01*
X008752Y004718D01*
X008668Y004718D01*
X008668Y004752D02*
X008752Y004752D01*
X008752Y004786D02*
X008668Y004786D01*
X008668Y004820D02*
X008752Y004820D01*
X008752Y004854D02*
X008668Y004854D01*
X008668Y004888D02*
X008752Y004888D01*
X008865Y004920D02*
X008865Y004718D01*
X008865Y004920D02*
X008949Y004920D01*
X008949Y004718D01*
X008865Y004718D01*
X008865Y004752D02*
X008949Y004752D01*
X008949Y004786D02*
X008865Y004786D01*
X008865Y004820D02*
X008949Y004820D01*
X008949Y004854D02*
X008865Y004854D01*
X008865Y004888D02*
X008949Y004888D01*
X009062Y004920D02*
X009062Y004718D01*
X009062Y004920D02*
X009146Y004920D01*
X009146Y004718D01*
X009062Y004718D01*
X009062Y004752D02*
X009146Y004752D01*
X009146Y004786D02*
X009062Y004786D01*
X009062Y004820D02*
X009146Y004820D01*
X009146Y004854D02*
X009062Y004854D01*
X009062Y004888D02*
X009146Y004888D01*
X009220Y004644D02*
X009422Y004644D01*
X009422Y004560D01*
X009220Y004560D01*
X009220Y004644D01*
X009220Y004594D02*
X009422Y004594D01*
X009422Y004628D02*
X009220Y004628D01*
X009220Y004447D02*
X009422Y004447D01*
X009422Y004363D01*
X009220Y004363D01*
X009220Y004447D01*
X009220Y004397D02*
X009422Y004397D01*
X009422Y004431D02*
X009220Y004431D01*
X009220Y004251D02*
X009422Y004251D01*
X009422Y004167D01*
X009220Y004167D01*
X009220Y004251D01*
X009220Y004201D02*
X009422Y004201D01*
X009422Y004235D02*
X009220Y004235D01*
X009220Y004054D02*
X009422Y004054D01*
X009422Y003970D01*
X009220Y003970D01*
X009220Y004054D01*
X009220Y004004D02*
X009422Y004004D01*
X009422Y004038D02*
X009220Y004038D01*
X009220Y003857D02*
X009422Y003857D01*
X009422Y003773D01*
X009220Y003773D01*
X009220Y003857D01*
X009220Y003807D02*
X009422Y003807D01*
X009422Y003841D02*
X009220Y003841D01*
X009220Y003660D02*
X009422Y003660D01*
X009422Y003576D01*
X009220Y003576D01*
X009220Y003660D01*
X009220Y003610D02*
X009422Y003610D01*
X009422Y003644D02*
X009220Y003644D01*
X009220Y003463D02*
X009422Y003463D01*
X009422Y003379D01*
X009220Y003379D01*
X009220Y003463D01*
X009220Y003413D02*
X009422Y003413D01*
X009422Y003447D02*
X009220Y003447D01*
X009220Y003266D02*
X009422Y003266D01*
X009422Y003182D01*
X009220Y003182D01*
X009220Y003266D01*
X009220Y003216D02*
X009422Y003216D01*
X009422Y003250D02*
X009220Y003250D01*
X009146Y003109D02*
X009146Y002907D01*
X009062Y002907D01*
X009062Y003109D01*
X009146Y003109D01*
X009146Y002941D02*
X009062Y002941D01*
X009062Y002975D02*
X009146Y002975D01*
X009146Y003009D02*
X009062Y003009D01*
X009062Y003043D02*
X009146Y003043D01*
X009146Y003077D02*
X009062Y003077D01*
X008949Y003109D02*
X008949Y002907D01*
X008865Y002907D01*
X008865Y003109D01*
X008949Y003109D01*
X008949Y002941D02*
X008865Y002941D01*
X008865Y002975D02*
X008949Y002975D01*
X008949Y003009D02*
X008865Y003009D01*
X008865Y003043D02*
X008949Y003043D01*
X008949Y003077D02*
X008865Y003077D01*
X008752Y003109D02*
X008752Y002907D01*
X008668Y002907D01*
X008668Y003109D01*
X008752Y003109D01*
X008752Y002941D02*
X008668Y002941D01*
X008668Y002975D02*
X008752Y002975D01*
X008752Y003009D02*
X008668Y003009D01*
X008668Y003043D02*
X008752Y003043D01*
X008752Y003077D02*
X008668Y003077D01*
X008556Y003109D02*
X008556Y002907D01*
X008472Y002907D01*
X008472Y003109D01*
X008556Y003109D01*
X008556Y002941D02*
X008472Y002941D01*
X008472Y002975D02*
X008556Y002975D01*
X008556Y003009D02*
X008472Y003009D01*
X008472Y003043D02*
X008556Y003043D01*
X008556Y003077D02*
X008472Y003077D01*
X008359Y003109D02*
X008359Y002907D01*
X008275Y002907D01*
X008275Y003109D01*
X008359Y003109D01*
X008359Y002941D02*
X008275Y002941D01*
X008275Y002975D02*
X008359Y002975D01*
X008359Y003009D02*
X008275Y003009D01*
X008275Y003043D02*
X008359Y003043D01*
X008359Y003077D02*
X008275Y003077D01*
X008162Y003109D02*
X008162Y002907D01*
X008078Y002907D01*
X008078Y003109D01*
X008162Y003109D01*
X008162Y002941D02*
X008078Y002941D01*
X008078Y002975D02*
X008162Y002975D01*
X008162Y003009D02*
X008078Y003009D01*
X008078Y003043D02*
X008162Y003043D01*
X008162Y003077D02*
X008078Y003077D01*
X007965Y003109D02*
X007965Y002907D01*
X007881Y002907D01*
X007881Y003109D01*
X007965Y003109D01*
X007965Y002941D02*
X007881Y002941D01*
X007881Y002975D02*
X007965Y002975D01*
X007965Y003009D02*
X007881Y003009D01*
X007881Y003043D02*
X007965Y003043D01*
X007965Y003077D02*
X007881Y003077D01*
X007768Y003109D02*
X007768Y002907D01*
X007684Y002907D01*
X007684Y003109D01*
X007768Y003109D01*
X007768Y002941D02*
X007684Y002941D01*
X007684Y002975D02*
X007768Y002975D01*
X007768Y003009D02*
X007684Y003009D01*
X007684Y003043D02*
X007768Y003043D01*
X007768Y003077D02*
X007684Y003077D01*
X007611Y003182D02*
X007409Y003182D01*
X007409Y003266D01*
X007611Y003266D01*
X007611Y003182D01*
X007611Y003216D02*
X007409Y003216D01*
X007409Y003250D02*
X007611Y003250D01*
X007611Y003379D02*
X007409Y003379D01*
X007409Y003463D01*
X007611Y003463D01*
X007611Y003379D01*
X007611Y003413D02*
X007409Y003413D01*
X007409Y003447D02*
X007611Y003447D01*
X007611Y003576D02*
X007409Y003576D01*
X007409Y003660D01*
X007611Y003660D01*
X007611Y003576D01*
X007611Y003610D02*
X007409Y003610D01*
X007409Y003644D02*
X007611Y003644D01*
X007611Y003773D02*
X007409Y003773D01*
X007409Y003857D01*
X007611Y003857D01*
X007611Y003773D01*
X007611Y003807D02*
X007409Y003807D01*
X007409Y003841D02*
X007611Y003841D01*
X007611Y003970D02*
X007409Y003970D01*
X007409Y004054D01*
X007611Y004054D01*
X007611Y003970D01*
X007611Y004004D02*
X007409Y004004D01*
X007409Y004038D02*
X007611Y004038D01*
X007611Y004167D02*
X007409Y004167D01*
X007409Y004251D01*
X007611Y004251D01*
X007611Y004167D01*
X007611Y004201D02*
X007409Y004201D01*
X007409Y004235D02*
X007611Y004235D01*
X007611Y004363D02*
X007409Y004363D01*
X007409Y004447D01*
X007611Y004447D01*
X007611Y004363D01*
X007611Y004397D02*
X007409Y004397D01*
X007409Y004431D02*
X007611Y004431D01*
X007611Y004560D02*
X007409Y004560D01*
X007409Y004644D01*
X007611Y004644D01*
X007611Y004560D01*
X007611Y004594D02*
X007409Y004594D01*
X007409Y004628D02*
X007611Y004628D01*
D22*
X008919Y004417D02*
X008919Y003409D01*
X007911Y003409D01*
X007911Y004417D01*
X008919Y004417D01*
X008919Y003660D02*
X007911Y003660D01*
X007911Y003911D02*
X008919Y003911D01*
X008919Y004162D02*
X007911Y004162D01*
X007911Y004413D02*
X008919Y004413D01*
D23*
X005040Y002813D03*
X005040Y002013D03*
D24*
X002215Y001101D03*
X001615Y001101D03*
D25*
X002665Y001851D03*
X005740Y002413D03*
X007353Y002163D03*
X008353Y001976D03*
X009590Y001788D03*
X007853Y001163D03*
X006228Y001288D03*
X009978Y000663D03*
X012915Y002663D03*
X010353Y002913D03*
X005040Y003413D03*
X003790Y002976D03*
X001290Y003101D03*
X002915Y004163D03*
X005040Y004538D03*
X003978Y005101D03*
X003140Y005913D03*
X005728Y006538D03*
X004853Y007163D03*
X003603Y007226D03*
X008915Y005413D03*
X013990Y006163D03*
X014103Y007226D03*
D26*
X011915Y005913D02*
X011665Y006163D01*
X011915Y005913D02*
X012541Y005913D01*
X013289Y005913D02*
X013289Y005038D01*
X013289Y004163D01*
X013289Y003288D01*
X013289Y003037D01*
X012915Y002663D01*
X012165Y003288D02*
X012040Y003163D01*
X011704Y003163D01*
X012165Y003288D02*
X012541Y003288D01*
X011990Y003913D02*
X012240Y004163D01*
X012541Y004163D01*
X011990Y003913D02*
X011704Y003913D01*
X011704Y004663D02*
X011790Y004663D01*
X012165Y005038D01*
X012541Y005038D01*
X008540Y006163D02*
X008540Y007021D01*
X008558Y007038D01*
X008683Y007163D01*
X009665Y007163D01*
X008540Y006163D02*
X008190Y005813D01*
X006509Y005813D01*
X005540Y007038D02*
X004915Y006413D01*
X004915Y004976D01*
X003978Y005101D02*
X003978Y005763D01*
X004024Y005810D01*
X001859Y005810D02*
X001853Y005816D01*
X001853Y007163D01*
X002125Y007435D01*
X002978Y007435D01*
X003393Y007435D01*
X003603Y007226D01*
X003812Y007435D01*
X004228Y007435D01*
X005540Y007038D02*
X007022Y007038D01*
X001859Y005810D02*
X001859Y002476D01*
X001859Y002267D01*
X003721Y001138D02*
X004454Y001138D01*
X004479Y001163D01*
X005740Y002413D02*
X005741Y002414D01*
X005741Y003163D01*
X011352Y001351D02*
X011352Y001351D01*
X012171Y001351D01*
D27*
X011353Y001352D02*
X011352Y001351D01*
X011353Y001352D02*
X011353Y001788D01*
X011228Y001913D01*
X010228Y001913D01*
X009540Y001226D01*
X009165Y001226D01*
X008853Y001538D01*
X008803Y001538D01*
X008290Y001538D01*
X007923Y001905D01*
X007923Y003008D01*
X007726Y003008D02*
X007726Y001974D01*
X007728Y001788D01*
X008228Y001288D01*
X008228Y000913D01*
X008103Y000788D01*
X006040Y000788D01*
X005665Y001163D01*
X005227Y001163D01*
X005290Y001163D01*
X005415Y001038D01*
X004479Y001163D02*
X004479Y001227D01*
X008120Y002555D02*
X008307Y002271D01*
X008120Y002555D02*
X008120Y003008D01*
X008120Y003459D01*
X008103Y003476D01*
X008103Y003351D02*
X008120Y003334D01*
X008317Y003008D02*
X008317Y002762D01*
X008415Y002663D01*
X009165Y002663D01*
X009104Y003008D02*
X009321Y003008D01*
X010228Y002101D01*
X013303Y002101D01*
X014015Y002813D01*
X013803Y002913D02*
X013178Y002288D01*
X010465Y002288D01*
X009529Y003224D01*
X009321Y003224D01*
X009321Y003421D02*
X009673Y003421D01*
X010165Y003913D01*
X010877Y003913D01*
X010540Y004663D02*
X009495Y003618D01*
X009321Y003618D01*
X009321Y004012D02*
X009514Y004012D01*
X011165Y005663D01*
X008915Y005413D02*
X008100Y005413D01*
X007726Y005040D01*
X007726Y004819D01*
X007103Y004788D02*
X007103Y004413D01*
X007307Y004209D01*
X007510Y004209D01*
X007192Y004012D02*
X006915Y004288D01*
X006915Y004413D01*
X006790Y004538D01*
X005040Y004538D01*
X006489Y004063D02*
X006840Y004063D01*
X007089Y003815D01*
X007510Y003815D01*
X007510Y004012D02*
X007192Y004012D01*
X006895Y003618D02*
X007510Y003618D01*
X006895Y003618D02*
X006490Y003213D01*
X007510Y003224D02*
X007510Y003421D01*
X009321Y004405D02*
X009532Y004405D01*
X009354Y004602D02*
X009321Y004602D01*
X009354Y004602D02*
X009478Y004726D01*
X009104Y004819D02*
X009104Y004852D01*
X010540Y004663D02*
X010877Y004663D01*
X007103Y004788D02*
X006984Y004907D01*
X006615Y004907D01*
X010604Y001351D02*
X010604Y001289D01*
X009978Y000663D01*
D28*
X001549Y000495D02*
X001329Y000566D01*
X001142Y000703D01*
X001006Y000890D01*
X000934Y001110D01*
X000925Y001226D01*
X000925Y006913D01*
X000934Y007029D01*
X001006Y007249D01*
X001142Y007436D01*
X001329Y007573D01*
X001549Y007644D01*
X001665Y007653D01*
X001709Y007653D01*
X001717Y007653D01*
X001919Y007653D01*
X001683Y007418D01*
X001598Y007333D01*
X001553Y007223D01*
X001553Y006384D01*
X001292Y006384D01*
X001187Y006278D01*
X001187Y005342D01*
X001292Y005236D01*
X001559Y005236D01*
X001559Y002840D01*
X001292Y002840D01*
X001187Y002735D01*
X001187Y001798D01*
X001292Y001693D01*
X002140Y001693D01*
X002042Y001596D01*
X001911Y001596D01*
X001869Y001554D01*
X001864Y001556D01*
X001670Y001556D01*
X001670Y001321D01*
X001637Y001321D01*
X001560Y001244D01*
X001560Y001556D01*
X001367Y001556D01*
X001331Y001546D01*
X001299Y001528D01*
X001273Y001502D01*
X001255Y001470D01*
X001245Y001434D01*
X001245Y001156D01*
X001508Y001156D01*
X001508Y001046D01*
X001245Y001046D01*
X001245Y000767D01*
X001255Y000732D01*
X001273Y000700D01*
X001299Y000674D01*
X001331Y000655D01*
X001367Y000646D01*
X001560Y000646D01*
X001560Y000957D01*
X001637Y000881D01*
X001670Y000881D01*
X001670Y000646D01*
X001864Y000646D01*
X001869Y000647D01*
X001911Y000606D01*
X002520Y000606D01*
X002613Y000699D01*
X002624Y000693D01*
X002660Y000683D01*
X002874Y000683D01*
X002874Y001078D01*
X002994Y001078D01*
X002994Y000683D01*
X003208Y000683D01*
X003244Y000693D01*
X003276Y000711D01*
X003299Y000735D01*
X003391Y000643D01*
X004052Y000643D01*
X004113Y000704D01*
X004148Y000668D01*
X004480Y000668D01*
X004663Y000486D01*
X001717Y000486D01*
X001707Y000486D01*
X001665Y000486D01*
X001549Y000495D01*
X001436Y000532D02*
X004616Y000532D01*
X004498Y000650D02*
X004059Y000650D01*
X003384Y000650D02*
X002564Y000650D01*
X002874Y000769D02*
X002994Y000769D01*
X002994Y000887D02*
X002874Y000887D01*
X002874Y001006D02*
X002994Y001006D01*
X002994Y001198D02*
X002874Y001198D01*
X002874Y001528D01*
X002880Y001530D01*
X002986Y001636D01*
X003044Y001775D01*
X003044Y001926D01*
X002986Y002065D01*
X002880Y002171D01*
X002740Y002229D01*
X002590Y002229D01*
X002531Y002205D01*
X002531Y002278D01*
X003352Y002278D01*
X003352Y001798D01*
X003458Y001693D01*
X004591Y001693D01*
X004610Y001712D01*
X004610Y001689D01*
X004641Y001658D01*
X004148Y001658D01*
X004088Y001597D01*
X004052Y001633D01*
X003391Y001633D01*
X003299Y001542D01*
X003276Y001565D01*
X003244Y001584D01*
X003208Y001593D01*
X002994Y001593D01*
X002994Y001198D01*
X002994Y001243D02*
X002874Y001243D01*
X002874Y001362D02*
X002994Y001362D01*
X002994Y001480D02*
X002874Y001480D01*
X002948Y001599D02*
X003356Y001599D01*
X003433Y001717D02*
X003019Y001717D01*
X003044Y001836D02*
X003352Y001836D01*
X003352Y001954D02*
X003032Y001954D01*
X002978Y002073D02*
X003352Y002073D01*
X003352Y002191D02*
X002832Y002191D01*
X001268Y001717D02*
X000925Y001717D01*
X000925Y001599D02*
X002045Y001599D01*
X001670Y001480D02*
X001560Y001480D01*
X001560Y001362D02*
X001670Y001362D01*
X001245Y001362D02*
X000925Y001362D01*
X000925Y001480D02*
X001261Y001480D01*
X001245Y001243D02*
X000925Y001243D01*
X000933Y001124D02*
X001508Y001124D01*
X001245Y001006D02*
X000968Y001006D01*
X001008Y000887D02*
X001245Y000887D01*
X001245Y000769D02*
X001094Y000769D01*
X001214Y000650D02*
X001350Y000650D01*
X001560Y000650D02*
X001670Y000650D01*
X001670Y000769D02*
X001560Y000769D01*
X001560Y000887D02*
X001630Y000887D01*
X004086Y001599D02*
X004089Y001599D01*
X005440Y001658D02*
X005470Y001689D01*
X005470Y002148D01*
X005526Y002092D01*
X005665Y002035D01*
X005815Y002035D01*
X005955Y002092D01*
X006061Y002199D01*
X006119Y002338D01*
X006119Y002489D01*
X006061Y002628D01*
X006041Y002647D01*
X006041Y002668D01*
X006072Y002668D01*
X006115Y002712D01*
X006159Y002668D01*
X006820Y002668D01*
X006925Y002774D01*
X006925Y003323D01*
X006990Y003388D01*
X007175Y003388D01*
X007151Y003364D01*
X007150Y003363D01*
X007149Y003362D01*
X007132Y003319D01*
X007113Y003276D01*
X007113Y003275D01*
X007113Y003273D01*
X007113Y003227D01*
X007112Y003181D01*
X007113Y003180D01*
X007113Y002458D01*
X007032Y002378D01*
X006974Y002239D01*
X006974Y002088D01*
X007015Y001990D01*
X006994Y001998D01*
X006811Y001998D01*
X006642Y001928D01*
X006513Y001799D01*
X006443Y001630D01*
X006443Y001447D01*
X006513Y001278D01*
X006642Y001148D01*
X006811Y001078D01*
X006994Y001078D01*
X007163Y001148D01*
X007293Y001278D01*
X007363Y001447D01*
X007363Y001630D01*
X007298Y001785D01*
X007428Y001785D01*
X007498Y001814D01*
X007498Y001789D01*
X007498Y001693D01*
X007499Y001692D01*
X007499Y001691D01*
X007563Y001627D01*
X007998Y001193D01*
X007998Y001018D01*
X006135Y001018D01*
X005760Y001393D01*
X005663Y001393D01*
X005663Y001553D01*
X005557Y001658D01*
X005440Y001658D01*
X005470Y001717D02*
X006479Y001717D01*
X006443Y001599D02*
X005617Y001599D01*
X005663Y001480D02*
X006443Y001480D01*
X006478Y001362D02*
X005792Y001362D01*
X005911Y001243D02*
X006547Y001243D01*
X006699Y001124D02*
X006029Y001124D01*
X007106Y001124D02*
X007998Y001124D01*
X007948Y001243D02*
X007258Y001243D01*
X007327Y001362D02*
X007829Y001362D01*
X007711Y001480D02*
X007363Y001480D01*
X007363Y001599D02*
X007592Y001599D01*
X007498Y001717D02*
X007326Y001717D01*
X006705Y001954D02*
X005470Y001954D01*
X005470Y001836D02*
X006550Y001836D01*
X006981Y002073D02*
X005907Y002073D01*
X006054Y002191D02*
X006974Y002191D01*
X007004Y002310D02*
X006107Y002310D01*
X006119Y002428D02*
X007083Y002428D01*
X007113Y002547D02*
X006094Y002547D01*
X006041Y002666D02*
X007113Y002666D01*
X007113Y002784D02*
X006925Y002784D01*
X006925Y002903D02*
X007113Y002903D01*
X007113Y003021D02*
X006925Y003021D01*
X006925Y003140D02*
X007113Y003140D01*
X007113Y003258D02*
X006925Y003258D01*
X006979Y003377D02*
X007164Y003377D01*
X007353Y003226D02*
X007476Y003224D01*
X007353Y003226D02*
X007353Y002163D01*
X008153Y002191D02*
X009298Y002191D01*
X009350Y002139D02*
X009350Y002083D01*
X009269Y002003D01*
X009212Y001864D01*
X009212Y001753D01*
X009193Y001799D01*
X009063Y001928D01*
X008894Y001998D01*
X008711Y001998D01*
X008542Y001928D01*
X008413Y001799D01*
X008400Y001768D01*
X008385Y001768D01*
X008153Y002001D01*
X008153Y002600D01*
X008185Y002568D01*
X008320Y002433D01*
X009056Y002433D01*
X009350Y002139D01*
X009340Y002073D02*
X008153Y002073D01*
X008199Y001954D02*
X008605Y001954D01*
X008450Y001836D02*
X008318Y001836D01*
X008353Y001976D02*
X008307Y002271D01*
X008153Y002310D02*
X009179Y002310D01*
X009061Y002428D02*
X008153Y002428D01*
X008153Y002547D02*
X008206Y002547D01*
X009165Y002663D02*
X009590Y002238D01*
X009590Y001788D01*
X009249Y001954D02*
X009000Y001954D01*
X009156Y001836D02*
X009212Y001836D01*
X010560Y002518D02*
X009828Y003251D01*
X009903Y003326D01*
X010260Y003683D01*
X010461Y003683D01*
X010461Y003602D01*
X010553Y003510D01*
X010529Y003485D01*
X010510Y003453D01*
X010501Y003418D01*
X010501Y003221D01*
X010818Y003221D01*
X010818Y003105D01*
X010501Y003105D01*
X010501Y002909D01*
X010510Y002873D01*
X010529Y002841D01*
X010555Y002815D01*
X010587Y002797D01*
X010622Y002787D01*
X010819Y002787D01*
X010819Y003105D01*
X010935Y003105D01*
X010935Y003221D01*
X011253Y003221D01*
X011253Y003418D01*
X011243Y003453D01*
X011225Y003485D01*
X011200Y003510D01*
X011290Y003600D01*
X011352Y003538D01*
X011287Y003474D01*
X011287Y002852D01*
X011393Y002747D01*
X012014Y002747D01*
X012120Y002852D01*
X012120Y002871D01*
X012129Y002875D01*
X012211Y002793D01*
X012559Y002793D01*
X012537Y002739D01*
X012537Y002588D01*
X012566Y002518D01*
X010560Y002518D01*
X010532Y002547D02*
X012554Y002547D01*
X012537Y002666D02*
X010413Y002666D01*
X010295Y002784D02*
X011356Y002784D01*
X011287Y002903D02*
X011251Y002903D01*
X011253Y002909D02*
X011253Y003105D01*
X010935Y003105D01*
X010935Y002787D01*
X011131Y002787D01*
X011167Y002797D01*
X011199Y002815D01*
X011225Y002841D01*
X011243Y002873D01*
X011253Y002909D01*
X011253Y003021D02*
X011287Y003021D01*
X011287Y003140D02*
X010935Y003140D01*
X010818Y003140D02*
X009939Y003140D01*
X009835Y003258D02*
X010501Y003258D01*
X010501Y003377D02*
X009954Y003377D01*
X010073Y003495D02*
X010539Y003495D01*
X010461Y003614D02*
X010191Y003614D01*
X011215Y003495D02*
X011309Y003495D01*
X011287Y003377D02*
X011253Y003377D01*
X011253Y003258D02*
X011287Y003258D01*
X010935Y003021D02*
X010819Y003021D01*
X010819Y002903D02*
X010935Y002903D01*
X010502Y002903D02*
X010176Y002903D01*
X010057Y003021D02*
X010501Y003021D01*
X012051Y002784D02*
X012556Y002784D01*
X013803Y002913D02*
X013790Y005351D01*
X013790Y005526D01*
X013990Y005726D01*
X013990Y006163D01*
X014843Y006163D02*
X014965Y006113D01*
X015114Y005963D01*
X015195Y005769D01*
X015195Y005558D01*
X015114Y005363D01*
X014965Y005214D01*
X014843Y005163D01*
X014965Y005113D01*
X015114Y004963D01*
X015195Y004769D01*
X015195Y004558D01*
X015114Y004363D01*
X014965Y004214D01*
X014843Y004163D01*
X014965Y004113D01*
X015114Y003963D01*
X015195Y003769D01*
X015195Y003558D01*
X015114Y003363D01*
X014965Y003214D01*
X014785Y003139D01*
X014853Y003117D01*
X014922Y003082D01*
X014984Y003037D01*
X015039Y002982D01*
X015084Y002920D01*
X015119Y002851D01*
X015143Y002778D01*
X015155Y002702D01*
X015155Y002692D01*
X014694Y002692D01*
X014694Y002635D01*
X015155Y002635D01*
X015155Y002625D01*
X015143Y002548D01*
X015119Y002475D01*
X015084Y002406D01*
X015039Y002344D01*
X014984Y002289D01*
X014922Y002244D01*
X014853Y002209D01*
X014780Y002185D01*
X014704Y002173D01*
X014694Y002173D01*
X014694Y002634D01*
X014637Y002634D01*
X014637Y002173D01*
X014627Y002173D01*
X014550Y002185D01*
X014477Y002209D01*
X014408Y002244D01*
X014346Y002289D01*
X014291Y002344D01*
X014246Y002406D01*
X014211Y002475D01*
X014187Y002548D01*
X014175Y002625D01*
X014175Y002634D01*
X014151Y002610D01*
X014127Y002600D01*
X013398Y001871D01*
X011583Y001871D01*
X011583Y001846D01*
X011682Y001846D01*
X011762Y001766D01*
X011841Y001846D01*
X012502Y001846D01*
X012593Y001754D01*
X012617Y001778D01*
X012649Y001796D01*
X012685Y001806D01*
X012899Y001806D01*
X012899Y001411D01*
X013019Y001411D01*
X013019Y001806D01*
X013233Y001806D01*
X013269Y001796D01*
X013301Y001778D01*
X013327Y001752D01*
X013345Y001720D01*
X013355Y001684D01*
X013355Y001411D01*
X013019Y001411D01*
X013019Y001291D01*
X013355Y001291D01*
X013355Y001017D01*
X013345Y000982D01*
X013327Y000950D01*
X013301Y000924D01*
X013269Y000905D01*
X013233Y000896D01*
X013019Y000896D01*
X013019Y001291D01*
X012899Y001291D01*
X012899Y000896D01*
X012685Y000896D01*
X012649Y000905D01*
X012617Y000924D01*
X012593Y000947D01*
X012502Y000856D01*
X011841Y000856D01*
X011762Y000935D01*
X011682Y000856D01*
X011021Y000856D01*
X010978Y000899D01*
X010934Y000856D01*
X010496Y000856D01*
X010356Y000716D01*
X010356Y000588D01*
X010314Y000486D01*
X014665Y000486D01*
X014781Y000495D01*
X015001Y000566D01*
X015188Y000702D01*
X015325Y000890D01*
X015396Y001110D01*
X015405Y001226D01*
X015405Y006861D01*
X015405Y006874D01*
X015405Y006913D01*
X015396Y007029D01*
X015325Y007249D01*
X015188Y007436D01*
X015001Y007573D01*
X014781Y007644D01*
X014665Y007653D01*
X010789Y007653D01*
X010948Y007587D01*
X011089Y007446D01*
X011165Y007263D01*
X011165Y007064D01*
X011089Y006880D01*
X010948Y006739D01*
X010765Y006663D01*
X010566Y006663D01*
X010461Y006620D01*
X010522Y006681D01*
X010566Y006663D01*
X010765Y006663D01*
X010948Y006587D01*
X010974Y006561D01*
X011029Y006617D01*
X011212Y006799D01*
X011279Y006867D01*
X011304Y006877D01*
X011272Y006922D01*
X011239Y006987D01*
X011217Y007055D01*
X011205Y007127D01*
X011205Y007144D01*
X011646Y007144D01*
X011646Y007182D01*
X011205Y007182D01*
X011205Y007199D01*
X011217Y007271D01*
X011239Y007340D01*
X011272Y007404D01*
X011314Y007463D01*
X011366Y007514D01*
X011424Y007557D01*
X011489Y007589D01*
X011557Y007612D01*
X011629Y007623D01*
X011646Y007623D01*
X011646Y007182D01*
X011684Y007182D01*
X012125Y007182D01*
X012125Y007199D01*
X012114Y007271D01*
X012091Y007340D01*
X012059Y007404D01*
X012016Y007463D01*
X011965Y007514D01*
X011906Y007557D01*
X011842Y007589D01*
X011773Y007612D01*
X011701Y007623D01*
X011684Y007623D01*
X011684Y007182D01*
X011684Y007144D01*
X012125Y007144D01*
X012125Y007127D01*
X012114Y007055D01*
X012091Y006987D01*
X012059Y006922D01*
X012045Y006903D01*
X012941Y006903D01*
X013410Y007373D01*
X013467Y007429D01*
X013555Y007466D01*
X013807Y007466D01*
X013888Y007547D01*
X014027Y007604D01*
X014178Y007604D01*
X014317Y007547D01*
X014423Y007440D01*
X014481Y007301D01*
X014481Y007187D01*
X014500Y007168D01*
X014560Y007193D01*
X014771Y007193D01*
X014965Y007113D01*
X015114Y006963D01*
X015195Y006769D01*
X015195Y006558D01*
X015114Y006363D01*
X014965Y006214D01*
X014843Y006163D01*
X014973Y006222D02*
X015405Y006222D01*
X015405Y006340D02*
X015092Y006340D01*
X015154Y006459D02*
X015405Y006459D01*
X015405Y006577D02*
X015195Y006577D01*
X015195Y006696D02*
X015405Y006696D01*
X015405Y006815D02*
X015176Y006815D01*
X015127Y006933D02*
X015404Y006933D01*
X015389Y007052D02*
X015026Y007052D01*
X014826Y007170D02*
X015350Y007170D01*
X015296Y007289D02*
X014481Y007289D01*
X014498Y007170D02*
X014504Y007170D01*
X014103Y007226D02*
X014665Y006663D01*
X014975Y006103D02*
X015405Y006103D01*
X015405Y005985D02*
X015093Y005985D01*
X015155Y005866D02*
X015405Y005866D01*
X015405Y005748D02*
X015195Y005748D01*
X015195Y005629D02*
X015405Y005629D01*
X015405Y005511D02*
X015176Y005511D01*
X015126Y005392D02*
X015405Y005392D01*
X015405Y005274D02*
X015025Y005274D01*
X014863Y005155D02*
X015405Y005155D01*
X015405Y005036D02*
X015041Y005036D01*
X015133Y004918D02*
X015405Y004918D01*
X015405Y004799D02*
X015182Y004799D01*
X015195Y004681D02*
X015405Y004681D01*
X015405Y004562D02*
X015195Y004562D01*
X015148Y004444D02*
X015405Y004444D01*
X015405Y004325D02*
X015077Y004325D01*
X014948Y004207D02*
X015405Y004207D01*
X015405Y004088D02*
X014990Y004088D01*
X015108Y003970D02*
X015405Y003970D01*
X015405Y003851D02*
X015161Y003851D01*
X015195Y003732D02*
X015405Y003732D01*
X015405Y003614D02*
X015195Y003614D01*
X015169Y003495D02*
X015405Y003495D01*
X015405Y003377D02*
X015120Y003377D01*
X015010Y003258D02*
X015405Y003258D01*
X015405Y003140D02*
X014786Y003140D01*
X015000Y003021D02*
X015405Y003021D01*
X015405Y002903D02*
X015093Y002903D01*
X015141Y002784D02*
X015405Y002784D01*
X015405Y002666D02*
X014694Y002666D01*
X014694Y002547D02*
X014637Y002547D01*
X014637Y002428D02*
X014694Y002428D01*
X014694Y002310D02*
X014637Y002310D01*
X014637Y002191D02*
X014694Y002191D01*
X014694Y002153D02*
X014704Y002153D01*
X014780Y002141D01*
X014853Y002117D01*
X014922Y002082D01*
X014984Y002037D01*
X015039Y001982D01*
X015084Y001920D01*
X015119Y001851D01*
X015143Y001778D01*
X015155Y001702D01*
X015155Y001692D01*
X014694Y001692D01*
X014694Y001635D01*
X015155Y001635D01*
X015155Y001625D01*
X015143Y001548D01*
X015119Y001475D01*
X015084Y001406D01*
X015039Y001344D01*
X014984Y001289D01*
X014922Y001244D01*
X014853Y001209D01*
X014780Y001185D01*
X014704Y001173D01*
X014694Y001173D01*
X014694Y001634D01*
X014637Y001634D01*
X014637Y001173D01*
X014627Y001173D01*
X014550Y001185D01*
X014477Y001209D01*
X014408Y001244D01*
X014346Y001289D01*
X014291Y001344D01*
X014246Y001406D01*
X014211Y001475D01*
X014187Y001548D01*
X014175Y001625D01*
X014175Y001635D01*
X014636Y001635D01*
X014636Y001692D01*
X014175Y001692D01*
X014175Y001702D01*
X014187Y001778D01*
X014211Y001851D01*
X014246Y001920D01*
X014291Y001982D01*
X014346Y002037D01*
X014408Y002082D01*
X014477Y002117D01*
X014550Y002141D01*
X014627Y002153D01*
X014637Y002153D01*
X014637Y001692D01*
X014694Y001692D01*
X014694Y002153D01*
X014694Y002073D02*
X014637Y002073D01*
X014637Y001954D02*
X014694Y001954D01*
X014694Y001836D02*
X014637Y001836D01*
X014637Y001717D02*
X014694Y001717D01*
X014694Y001599D02*
X014637Y001599D01*
X014637Y001480D02*
X014694Y001480D01*
X014694Y001362D02*
X014637Y001362D01*
X014637Y001243D02*
X014694Y001243D01*
X014920Y001243D02*
X015405Y001243D01*
X015405Y001362D02*
X015052Y001362D01*
X015121Y001480D02*
X015405Y001480D01*
X015405Y001599D02*
X015151Y001599D01*
X015153Y001717D02*
X015405Y001717D01*
X015405Y001836D02*
X015124Y001836D01*
X015059Y001954D02*
X015405Y001954D01*
X015405Y002073D02*
X014935Y002073D01*
X014799Y002191D02*
X015405Y002191D01*
X015405Y002310D02*
X015005Y002310D01*
X015095Y002428D02*
X015405Y002428D01*
X015405Y002547D02*
X015143Y002547D01*
X014326Y002310D02*
X013837Y002310D01*
X013719Y002191D02*
X014532Y002191D01*
X014395Y002073D02*
X013600Y002073D01*
X013482Y001954D02*
X014271Y001954D01*
X014206Y001836D02*
X012512Y001836D01*
X012899Y001717D02*
X013019Y001717D01*
X013019Y001599D02*
X012899Y001599D01*
X012899Y001480D02*
X013019Y001480D01*
X013019Y001362D02*
X014279Y001362D01*
X014209Y001480D02*
X013355Y001480D01*
X013355Y001599D02*
X014179Y001599D01*
X014178Y001717D02*
X013346Y001717D01*
X013398Y001871D02*
X013398Y001871D01*
X013355Y001243D02*
X014410Y001243D01*
X015362Y001006D02*
X013352Y001006D01*
X013355Y001124D02*
X015397Y001124D01*
X015323Y000887D02*
X012534Y000887D01*
X012899Y001006D02*
X013019Y001006D01*
X013019Y001124D02*
X012899Y001124D01*
X012899Y001243D02*
X013019Y001243D01*
X011809Y000887D02*
X011714Y000887D01*
X010990Y000887D02*
X010966Y000887D01*
X010409Y000769D02*
X015237Y000769D01*
X015117Y000650D02*
X010356Y000650D01*
X010333Y000532D02*
X014895Y000532D01*
X011831Y001836D02*
X011692Y001836D01*
X013956Y002428D02*
X014235Y002428D01*
X014188Y002547D02*
X014074Y002547D01*
X014015Y002813D02*
X014015Y005013D01*
X014665Y005663D01*
X013603Y007226D02*
X013040Y006663D01*
X011415Y006663D01*
X011165Y006413D01*
X011165Y005663D01*
X010665Y005538D02*
X010665Y006163D01*
X009665Y006163D02*
X009665Y005413D01*
X009228Y004976D01*
X009104Y004852D01*
X009478Y004726D02*
X010165Y005413D01*
X010165Y005413D01*
X010165Y006663D01*
X010665Y007163D01*
X011165Y007170D02*
X011646Y007170D01*
X011684Y007170D02*
X013208Y007170D01*
X013089Y007052D02*
X012113Y007052D01*
X012064Y006933D02*
X012971Y006933D01*
X013326Y007289D02*
X012108Y007289D01*
X012056Y007407D02*
X013445Y007407D01*
X013603Y007226D02*
X014103Y007226D01*
X014437Y007407D02*
X015210Y007407D01*
X015065Y007526D02*
X014338Y007526D01*
X014778Y007644D02*
X010810Y007644D01*
X011010Y007526D02*
X011382Y007526D01*
X011274Y007407D02*
X011105Y007407D01*
X011154Y007289D02*
X011222Y007289D01*
X011646Y007289D02*
X011684Y007289D01*
X011684Y007407D02*
X011646Y007407D01*
X011646Y007526D02*
X011684Y007526D01*
X011949Y007526D02*
X013868Y007526D01*
X011266Y006933D02*
X011111Y006933D01*
X011160Y007052D02*
X011218Y007052D01*
X011227Y006815D02*
X011024Y006815D01*
X011109Y006696D02*
X010844Y006696D01*
X010958Y006577D02*
X010990Y006577D01*
X010665Y005538D02*
X009532Y004405D01*
X008415Y003913D02*
X008196Y003694D01*
X007889Y004002D01*
X007889Y004012D01*
X007915Y004038D01*
X008196Y003694D02*
X008103Y003601D01*
X008103Y003476D01*
X008103Y003413D01*
X008120Y003396D01*
X008103Y003413D02*
X008103Y003351D01*
X006589Y003213D02*
X006489Y003163D01*
X006490Y003213D02*
X006589Y003213D01*
X005573Y002073D02*
X005470Y002073D01*
X001559Y002903D02*
X000925Y002903D01*
X000925Y003021D02*
X001559Y003021D01*
X001559Y003140D02*
X000925Y003140D01*
X000925Y003258D02*
X001559Y003258D01*
X001559Y003377D02*
X000925Y003377D01*
X000925Y003495D02*
X001559Y003495D01*
X001559Y003614D02*
X000925Y003614D01*
X000925Y003732D02*
X001559Y003732D01*
X001559Y003851D02*
X000925Y003851D01*
X000925Y003970D02*
X001559Y003970D01*
X001559Y004088D02*
X000925Y004088D01*
X000925Y004207D02*
X001559Y004207D01*
X001559Y004325D02*
X000925Y004325D01*
X000925Y004444D02*
X001559Y004444D01*
X001559Y004562D02*
X000925Y004562D01*
X000925Y004681D02*
X001559Y004681D01*
X001559Y004799D02*
X000925Y004799D01*
X000925Y004918D02*
X001559Y004918D01*
X001559Y005036D02*
X000925Y005036D01*
X000925Y005155D02*
X001559Y005155D01*
X001255Y005274D02*
X000925Y005274D01*
X000925Y005392D02*
X001187Y005392D01*
X001187Y005511D02*
X000925Y005511D01*
X000925Y005629D02*
X001187Y005629D01*
X001187Y005748D02*
X000925Y005748D01*
X000925Y005866D02*
X001187Y005866D01*
X001187Y005985D02*
X000925Y005985D01*
X000925Y006103D02*
X001187Y006103D01*
X001187Y006222D02*
X000925Y006222D01*
X000925Y006340D02*
X001249Y006340D01*
X001553Y006459D02*
X000925Y006459D01*
X000925Y006577D02*
X001553Y006577D01*
X001553Y006696D02*
X000925Y006696D01*
X000925Y006815D02*
X001553Y006815D01*
X001553Y006933D02*
X000927Y006933D01*
X000942Y007052D02*
X001553Y007052D01*
X001553Y007170D02*
X000980Y007170D01*
X001035Y007289D02*
X001580Y007289D01*
X001673Y007407D02*
X001121Y007407D01*
X001265Y007526D02*
X001791Y007526D01*
X001683Y007418D02*
X001683Y007418D01*
X001552Y007644D02*
X001910Y007644D01*
X004605Y007653D02*
X004605Y007144D01*
X004561Y007101D01*
X004605Y007057D01*
X004605Y006475D01*
X004513Y006384D01*
X004591Y006384D01*
X004615Y006359D01*
X004615Y006473D01*
X004661Y006583D01*
X004745Y006668D01*
X005370Y007293D01*
X005480Y007338D01*
X005600Y007338D01*
X006468Y007338D01*
X006468Y007653D01*
X004605Y007653D01*
X004605Y007644D02*
X006468Y007644D01*
X006468Y007526D02*
X004605Y007526D01*
X004605Y007407D02*
X006468Y007407D01*
X005366Y007289D02*
X004605Y007289D01*
X004605Y007170D02*
X005248Y007170D01*
X005129Y007052D02*
X004605Y007052D01*
X004605Y006933D02*
X005011Y006933D01*
X004892Y006815D02*
X004605Y006815D01*
X004605Y006696D02*
X004774Y006696D01*
X004659Y006577D02*
X004605Y006577D01*
X004615Y006459D02*
X004588Y006459D01*
X005215Y006289D02*
X005664Y006738D01*
X006468Y006738D01*
X006468Y006308D01*
X006178Y006308D01*
X006087Y006217D01*
X006063Y006240D01*
X006031Y006259D01*
X005996Y006268D01*
X005781Y006268D01*
X005781Y005873D01*
X005662Y005873D01*
X005662Y006268D01*
X005447Y006268D01*
X005412Y006259D01*
X005380Y006240D01*
X005354Y006214D01*
X005335Y006182D01*
X005326Y006147D01*
X005326Y005873D01*
X005661Y005873D01*
X005661Y005753D01*
X005326Y005753D01*
X005326Y005480D01*
X005335Y005444D01*
X005346Y005426D01*
X005335Y005407D01*
X005326Y005372D01*
X005326Y005098D01*
X005661Y005098D01*
X005661Y004978D01*
X005326Y004978D01*
X005326Y004788D01*
X005255Y004859D01*
X005201Y004881D01*
X005215Y004916D01*
X005215Y006289D01*
X005215Y006222D02*
X005361Y006222D01*
X005326Y006103D02*
X005215Y006103D01*
X005215Y005985D02*
X005326Y005985D01*
X005215Y005866D02*
X005661Y005866D01*
X005662Y005753D02*
X005781Y005753D01*
X005781Y005358D01*
X005781Y005098D01*
X005662Y005098D01*
X005662Y005358D01*
X005662Y005753D01*
X005662Y005748D02*
X005781Y005748D01*
X005781Y005629D02*
X005662Y005629D01*
X005662Y005511D02*
X005781Y005511D01*
X005781Y005392D02*
X005662Y005392D01*
X005662Y005274D02*
X005781Y005274D01*
X005781Y005155D02*
X005662Y005155D01*
X005661Y005036D02*
X005215Y005036D01*
X005215Y004918D02*
X005326Y004918D01*
X005314Y004799D02*
X005326Y004799D01*
X005326Y005155D02*
X005215Y005155D01*
X005215Y005274D02*
X005326Y005274D01*
X005331Y005392D02*
X005215Y005392D01*
X005215Y005511D02*
X005326Y005511D01*
X005326Y005629D02*
X005215Y005629D01*
X005215Y005748D02*
X005326Y005748D01*
X005662Y005985D02*
X005781Y005985D01*
X005781Y006103D02*
X005662Y006103D01*
X005662Y006222D02*
X005781Y006222D01*
X006082Y006222D02*
X006092Y006222D01*
X006468Y006340D02*
X005267Y006340D01*
X005385Y006459D02*
X006468Y006459D01*
X006468Y006577D02*
X005504Y006577D01*
X005622Y006696D02*
X006468Y006696D01*
X006509Y005038D02*
X006615Y004907D01*
X001236Y002784D02*
X000925Y002784D01*
X000925Y002666D02*
X001187Y002666D01*
X001187Y002547D02*
X000925Y002547D01*
X000925Y002428D02*
X001187Y002428D01*
X001187Y002310D02*
X000925Y002310D01*
X000925Y002191D02*
X001187Y002191D01*
X001187Y002073D02*
X000925Y002073D01*
X000925Y001954D02*
X001187Y001954D01*
X001187Y001836D02*
X000925Y001836D01*
D29*
X001728Y001101D02*
X002103Y001101D01*
X007476Y003224D02*
X007510Y003224D01*
D30*
X005741Y004063D02*
X005716Y004038D01*
X004024Y004038D01*
X003428Y004038D01*
X003053Y003663D01*
X002728Y003663D01*
X002415Y003976D01*
X002415Y005163D01*
X002665Y005413D01*
X002665Y006413D01*
X002978Y006726D01*
X002978Y006766D01*
X003140Y006201D02*
X003706Y006766D01*
X004228Y006766D01*
X003140Y006201D02*
X003140Y005913D01*
X004608Y004668D02*
X004915Y004976D01*
X004608Y004668D02*
X004024Y004668D01*
X004024Y004353D02*
X003105Y004353D01*
X002915Y004163D01*
X003790Y003408D02*
X003790Y002976D01*
X005040Y002976D01*
X005040Y002813D01*
X004940Y002913D01*
X003937Y002267D02*
X003665Y002538D01*
X001922Y002538D01*
X001859Y002476D01*
X002665Y001851D02*
X002165Y001351D01*
X002165Y001213D01*
X002215Y001101D01*
X002353Y001238D01*
X002278Y001276D02*
X002215Y001101D01*
X002665Y001851D02*
X002665Y001851D01*
X003937Y002267D02*
X004024Y002267D01*
X004278Y002013D01*
X005040Y002013D01*
X004479Y001227D02*
X004479Y001037D01*
X004978Y000538D01*
X009415Y000538D01*
X009540Y000663D01*
X009978Y000663D01*
X005040Y003413D02*
X004029Y003413D01*
X004024Y003408D01*
X003790Y003408D01*
M02*
