G75*
G70*
%OFA0B0*%
%FSLAX24Y24*%
%IPPOS*%
%LPD*%
%AMOC8*
5,1,8,0,0,1.08239X$1,22.5*
%
%ADD10C,0.0040*%
%ADD11C,0.0020*%
%ADD12C,0.0060*%
D10*
X012411Y004679D02*
X012378Y004712D01*
X012378Y004879D01*
X012478Y004879D01*
X012511Y004846D01*
X012511Y004779D01*
X012478Y004746D01*
X012378Y004746D01*
X012411Y004679D02*
X012445Y004679D01*
X012290Y004779D02*
X012257Y004812D01*
X012157Y004812D01*
X012157Y004846D02*
X012157Y004746D01*
X012257Y004746D01*
X012290Y004779D01*
X012257Y004879D02*
X012190Y004879D01*
X012157Y004846D01*
X012069Y004879D02*
X012069Y004913D01*
X012036Y004946D01*
X011969Y004946D01*
X011936Y004913D01*
X011936Y004879D01*
X011969Y004846D01*
X012036Y004846D01*
X012069Y004879D01*
X012036Y004846D02*
X012069Y004812D01*
X012069Y004779D01*
X012036Y004746D01*
X011969Y004746D01*
X011936Y004779D01*
X011936Y004812D01*
X011969Y004846D01*
X011848Y004779D02*
X011848Y004946D01*
X011715Y004946D02*
X011715Y004779D01*
X011748Y004746D01*
X011815Y004746D01*
X011848Y004779D01*
X011627Y004746D02*
X011494Y004879D01*
X011494Y004913D01*
X011527Y004946D01*
X011594Y004946D01*
X011627Y004913D01*
X011627Y004746D02*
X011494Y004746D01*
X011185Y004779D02*
X011185Y004946D01*
X011052Y004946D02*
X011052Y004779D01*
X011085Y004746D01*
X011152Y004746D01*
X011185Y004779D01*
X010964Y004779D02*
X010931Y004746D01*
X010864Y004746D01*
X010831Y004779D01*
X010831Y004812D01*
X010864Y004846D01*
X010931Y004846D01*
X010964Y004879D01*
X010964Y004913D01*
X010931Y004946D01*
X010864Y004946D01*
X010831Y004913D01*
X010743Y004946D02*
X010743Y004746D01*
X010643Y004746D01*
X010610Y004779D01*
X010610Y004812D01*
X010643Y004846D01*
X010743Y004846D01*
X010643Y004846D02*
X010610Y004879D01*
X010610Y004913D01*
X010643Y004946D01*
X010743Y004946D01*
X010522Y004846D02*
X010389Y004846D01*
X010301Y004846D02*
X010268Y004879D01*
X010168Y004879D01*
X010201Y004812D02*
X010268Y004812D01*
X010301Y004846D01*
X010301Y004746D02*
X010201Y004746D01*
X010168Y004779D01*
X010201Y004812D01*
X010080Y004812D02*
X009947Y004812D01*
X009947Y004846D01*
X009980Y004879D01*
X010047Y004879D01*
X010080Y004846D01*
X010080Y004779D01*
X010047Y004746D01*
X009980Y004746D01*
X009859Y004746D02*
X009859Y004879D01*
X009793Y004879D02*
X009759Y004879D01*
X009793Y004879D02*
X009859Y004812D01*
X009675Y004746D02*
X009609Y004746D01*
X009642Y004746D02*
X009642Y004879D01*
X009675Y004879D01*
X009642Y004946D02*
X009642Y004979D01*
X009495Y004879D02*
X009428Y004879D01*
X009395Y004846D01*
X009395Y004746D01*
X009495Y004746D01*
X009528Y004779D01*
X009495Y004812D01*
X009395Y004812D01*
X009307Y004746D02*
X009240Y004746D01*
X009274Y004746D02*
X009274Y004946D01*
X009307Y004946D01*
X008939Y004846D02*
X008939Y004779D01*
X008905Y004746D01*
X008805Y004746D01*
X008718Y004779D02*
X008718Y004846D01*
X008684Y004879D01*
X008618Y004879D01*
X008584Y004846D01*
X008584Y004779D01*
X008618Y004746D01*
X008684Y004746D01*
X008718Y004779D01*
X008805Y004879D02*
X008905Y004879D01*
X008939Y004846D01*
X008497Y004879D02*
X008497Y004746D01*
X008497Y004879D02*
X008397Y004879D01*
X008363Y004846D01*
X008363Y004746D01*
X008209Y004746D02*
X008142Y004879D01*
X008055Y004846D02*
X008021Y004879D01*
X007955Y004879D01*
X007921Y004846D01*
X007921Y004812D01*
X008055Y004812D01*
X008055Y004779D02*
X008055Y004846D01*
X008055Y004779D02*
X008021Y004746D01*
X007955Y004746D01*
X007834Y004746D02*
X007834Y004879D01*
X007834Y004812D02*
X007767Y004879D01*
X007734Y004879D01*
X007650Y004879D02*
X007583Y004879D01*
X007616Y004913D02*
X007616Y004779D01*
X007583Y004746D01*
X007502Y004779D02*
X007502Y004846D01*
X007469Y004879D01*
X007402Y004879D01*
X007369Y004846D01*
X007369Y004812D01*
X007502Y004812D01*
X007502Y004779D02*
X007469Y004746D01*
X007402Y004746D01*
X007281Y004746D02*
X007281Y004879D01*
X007215Y004879D02*
X007181Y004879D01*
X007215Y004879D02*
X007281Y004812D01*
X006876Y004746D02*
X006876Y004879D01*
X006843Y004879D01*
X006810Y004846D01*
X006776Y004879D01*
X006743Y004846D01*
X006743Y004746D01*
X006810Y004746D02*
X006810Y004846D01*
X006655Y004846D02*
X006655Y004779D01*
X006622Y004746D01*
X006555Y004746D01*
X006522Y004779D01*
X006522Y004846D01*
X006555Y004879D01*
X006622Y004879D01*
X006655Y004846D01*
X006434Y004846D02*
X006401Y004879D01*
X006301Y004879D01*
X006301Y004946D02*
X006301Y004746D01*
X006401Y004746D01*
X006434Y004779D01*
X006434Y004846D01*
X006213Y004879D02*
X006213Y004779D01*
X006180Y004746D01*
X006080Y004746D01*
X006080Y004879D01*
X005992Y004946D02*
X005959Y004946D01*
X005959Y004746D01*
X005992Y004746D02*
X005926Y004746D01*
X005845Y004779D02*
X005845Y004846D01*
X005812Y004879D01*
X005745Y004879D01*
X005712Y004846D01*
X005712Y004812D01*
X005845Y004812D01*
X005845Y004779D02*
X005812Y004746D01*
X005745Y004746D01*
X008209Y004746D02*
X008276Y004879D01*
X012599Y004846D02*
X012599Y004812D01*
X012732Y004812D01*
X012732Y004779D02*
X012732Y004846D01*
X012699Y004879D01*
X012632Y004879D01*
X012599Y004846D01*
X012632Y004746D02*
X012699Y004746D01*
X012732Y004779D01*
X012820Y004746D02*
X012820Y004846D01*
X012853Y004879D01*
X012887Y004846D01*
X012887Y004746D01*
X012953Y004746D02*
X012953Y004879D01*
X012920Y004879D01*
X012887Y004846D01*
X013041Y004946D02*
X013174Y004946D01*
X013108Y004946D02*
X013108Y004746D01*
X013262Y004746D02*
X013262Y004879D01*
X013329Y004946D01*
X013395Y004879D01*
X013395Y004746D01*
X013395Y004846D02*
X013262Y004846D01*
X013270Y006583D02*
X013370Y006583D01*
X013370Y006783D01*
X013270Y006783D01*
X013237Y006750D01*
X013237Y006717D01*
X013270Y006683D01*
X013370Y006683D01*
X013270Y006683D02*
X013237Y006650D01*
X013237Y006617D01*
X013270Y006583D01*
X013149Y006617D02*
X013149Y006750D01*
X013116Y006783D01*
X013049Y006783D01*
X013016Y006750D01*
X013016Y006617D01*
X013049Y006583D01*
X013116Y006583D01*
X013149Y006617D01*
X012928Y006617D02*
X012895Y006583D01*
X012828Y006583D01*
X012795Y006617D01*
X012795Y006750D01*
X012828Y006783D01*
X012895Y006783D01*
X012928Y006750D01*
X012928Y006617D01*
X012707Y006783D02*
X012574Y006783D01*
X012641Y006783D02*
X012641Y006583D01*
D11*
X008058Y003327D02*
X008024Y003361D01*
X008041Y003361D01*
X008041Y003377D01*
X008024Y003377D01*
X008024Y003361D01*
X008101Y003361D02*
X008101Y003411D01*
X008118Y003427D01*
X008168Y003427D01*
X008168Y003361D01*
X008212Y003377D02*
X008212Y003411D01*
X008229Y003427D01*
X008262Y003427D01*
X008279Y003411D01*
X008279Y003377D01*
X008262Y003361D01*
X008229Y003361D01*
X008212Y003377D01*
X008319Y003361D02*
X008336Y003377D01*
X008336Y003444D01*
X008352Y003427D02*
X008319Y003427D01*
X008396Y003427D02*
X008446Y003427D01*
X008463Y003411D01*
X008446Y003394D01*
X008413Y003394D01*
X008396Y003377D01*
X008413Y003361D01*
X008463Y003361D01*
X008507Y003394D02*
X008573Y003394D01*
X008573Y003377D02*
X008573Y003411D01*
X008557Y003427D01*
X008523Y003427D01*
X008507Y003411D01*
X008507Y003394D01*
X008523Y003361D02*
X008557Y003361D01*
X008573Y003377D01*
X008617Y003361D02*
X008617Y003461D01*
X008684Y003461D02*
X008684Y003361D01*
X008650Y003394D01*
X008617Y003361D01*
X008838Y003394D02*
X008905Y003394D01*
X008905Y003377D02*
X008905Y003411D01*
X008888Y003427D01*
X008855Y003427D01*
X008838Y003411D01*
X008838Y003394D01*
X008855Y003361D02*
X008888Y003361D01*
X008905Y003377D01*
X008947Y003361D02*
X008997Y003394D01*
X008947Y003427D01*
X008997Y003461D02*
X008997Y003361D01*
X009041Y003361D02*
X009041Y003427D01*
X009107Y003427D02*
X009107Y003377D01*
X009091Y003361D01*
X009041Y003361D01*
X009151Y003361D02*
X009218Y003361D01*
X009218Y003461D01*
X007874Y003444D02*
X007857Y003461D01*
X007824Y003461D01*
X007807Y003444D01*
X007807Y003427D01*
X007874Y003361D01*
X007807Y003361D01*
X007763Y003377D02*
X007696Y003444D01*
X007696Y003377D01*
X007713Y003361D01*
X007746Y003361D01*
X007763Y003377D01*
X007763Y003444D01*
X007746Y003461D01*
X007713Y003461D01*
X007696Y003444D01*
X007653Y003427D02*
X007619Y003461D01*
X007619Y003361D01*
X007586Y003361D02*
X007653Y003361D01*
X007542Y003361D02*
X007475Y003427D01*
X007475Y003444D01*
X007492Y003461D01*
X007526Y003461D01*
X007542Y003444D01*
X007542Y003361D02*
X007475Y003361D01*
X007694Y004077D02*
X007711Y004077D01*
X007694Y004077D02*
X007677Y004094D01*
X007677Y004177D01*
X007634Y004161D02*
X007617Y004177D01*
X007567Y004177D01*
X007583Y004144D02*
X007617Y004144D01*
X007634Y004161D01*
X007634Y004111D02*
X007583Y004111D01*
X007567Y004127D01*
X007583Y004144D01*
X007523Y004177D02*
X007490Y004177D01*
X007506Y004194D02*
X007506Y004127D01*
X007490Y004111D01*
X007449Y004127D02*
X007449Y004161D01*
X007433Y004177D01*
X007399Y004177D01*
X007383Y004161D01*
X007383Y004144D01*
X007449Y004144D01*
X007449Y004127D02*
X007433Y004111D01*
X007399Y004111D01*
X007339Y004111D02*
X007339Y004177D01*
X007322Y004177D01*
X007306Y004161D01*
X007289Y004177D01*
X007272Y004161D01*
X007272Y004111D01*
X007306Y004111D02*
X007306Y004161D01*
X007228Y004161D02*
X007212Y004177D01*
X007162Y004177D01*
X007178Y004144D02*
X007212Y004144D01*
X007228Y004161D01*
X007228Y004111D02*
X007178Y004111D01*
X007162Y004127D01*
X007178Y004144D01*
X007677Y004111D02*
X007727Y004111D01*
X007744Y004127D01*
X007744Y004177D01*
X007788Y004177D02*
X007838Y004177D01*
X007854Y004161D01*
X007838Y004144D01*
X007804Y004144D01*
X007788Y004127D01*
X007804Y004111D01*
X007854Y004111D01*
X008007Y004177D02*
X008024Y004177D01*
X008057Y004144D01*
X008057Y004111D02*
X008057Y004177D01*
X008101Y004161D02*
X008101Y004111D01*
X008151Y004111D01*
X008167Y004127D01*
X008151Y004144D01*
X008101Y004144D01*
X008101Y004161D02*
X008117Y004177D01*
X008151Y004177D01*
X008224Y004211D02*
X008224Y004111D01*
X008208Y004111D02*
X008241Y004111D01*
X008281Y004111D02*
X008315Y004111D01*
X008298Y004111D02*
X008298Y004177D01*
X008315Y004177D01*
X008298Y004211D02*
X008298Y004227D01*
X008241Y004211D02*
X008224Y004211D01*
X008359Y004161D02*
X008359Y004111D01*
X008392Y004111D02*
X008392Y004161D01*
X008375Y004177D01*
X008359Y004161D01*
X008392Y004161D02*
X008409Y004177D01*
X008425Y004177D01*
X008425Y004111D01*
X008466Y004111D02*
X008499Y004111D01*
X008482Y004111D02*
X008482Y004177D01*
X008499Y004177D01*
X008482Y004211D02*
X008482Y004227D01*
X008543Y004177D02*
X008593Y004177D01*
X008609Y004161D01*
X008593Y004144D01*
X008559Y004144D01*
X008543Y004127D01*
X008559Y004111D01*
X008609Y004111D01*
X008764Y004111D02*
X008814Y004111D01*
X008830Y004127D01*
X008830Y004161D01*
X008814Y004177D01*
X008764Y004177D01*
X008764Y004211D02*
X008764Y004111D01*
X008874Y004111D02*
X008874Y004161D01*
X008891Y004177D01*
X008941Y004177D01*
X008941Y004111D01*
X008985Y004111D02*
X009035Y004111D01*
X009051Y004127D01*
X009035Y004144D01*
X008985Y004144D01*
X008985Y004161D02*
X008985Y004111D01*
X008985Y004161D02*
X009001Y004177D01*
X009035Y004177D01*
X009206Y004161D02*
X009206Y004127D01*
X009222Y004111D01*
X009256Y004111D01*
X009272Y004127D01*
X009272Y004161D01*
X009256Y004177D01*
X009222Y004177D01*
X009206Y004161D01*
X009316Y004161D02*
X009316Y004111D01*
X009316Y004161D02*
X009333Y004177D01*
X009383Y004177D01*
X009383Y004111D01*
X009426Y004127D02*
X009426Y004211D01*
X009493Y004211D02*
X009493Y004127D01*
X009476Y004111D01*
X009443Y004111D01*
X009426Y004127D01*
X009647Y004127D02*
X009647Y004161D01*
X009664Y004177D01*
X009697Y004177D01*
X009714Y004161D01*
X009714Y004127D01*
X009697Y004111D01*
X009664Y004111D01*
X009647Y004127D01*
X009758Y004111D02*
X009758Y004161D01*
X009775Y004177D01*
X009825Y004177D01*
X009825Y004111D01*
X009865Y004111D02*
X009898Y004111D01*
X009882Y004111D02*
X009882Y004177D01*
X009898Y004177D01*
X009882Y004211D02*
X009882Y004227D01*
X009942Y004177D02*
X009942Y004111D01*
X009992Y004111D01*
X010009Y004127D01*
X010009Y004177D01*
X010052Y004177D02*
X010103Y004177D01*
X010119Y004161D01*
X010119Y004127D01*
X010103Y004111D01*
X010052Y004111D01*
X010052Y004211D01*
X010161Y004177D02*
X010178Y004177D01*
X010211Y004144D01*
X010211Y004111D02*
X010211Y004177D01*
X010255Y004177D02*
X010255Y004111D01*
X010255Y004161D02*
X010322Y004161D01*
X010322Y004177D02*
X010288Y004211D01*
X010255Y004177D01*
X010322Y004177D02*
X010322Y004111D01*
X010476Y004111D02*
X010476Y004161D01*
X010493Y004177D01*
X010526Y004177D01*
X010543Y004161D01*
X010583Y004177D02*
X010616Y004177D01*
X010600Y004194D02*
X010600Y004127D01*
X010583Y004111D01*
X010543Y004111D02*
X010543Y004211D01*
X010673Y004227D02*
X010673Y004211D01*
X010673Y004177D02*
X010673Y004111D01*
X010657Y004111D02*
X010690Y004111D01*
X010734Y004127D02*
X010734Y004177D01*
X010690Y004177D02*
X010673Y004177D01*
X010734Y004127D02*
X010750Y004111D01*
X010767Y004127D01*
X010784Y004111D01*
X010800Y004127D01*
X010800Y004177D01*
X010955Y004161D02*
X010955Y004144D01*
X011021Y004144D01*
X011021Y004127D02*
X011021Y004161D01*
X011005Y004177D01*
X010971Y004177D01*
X010955Y004161D01*
X010971Y004111D02*
X011005Y004111D01*
X011021Y004127D01*
X011062Y004111D02*
X011095Y004111D01*
X011078Y004111D02*
X011078Y004211D01*
X011095Y004211D01*
X011139Y004161D02*
X011155Y004177D01*
X011206Y004177D01*
X011206Y004211D02*
X011206Y004111D01*
X011155Y004111D01*
X011139Y004127D01*
X011139Y004161D01*
X011246Y004111D02*
X011279Y004111D01*
X011263Y004111D02*
X011263Y004177D01*
X011279Y004177D01*
X011263Y004211D02*
X011263Y004227D01*
X011319Y004177D02*
X011353Y004177D01*
X011336Y004194D02*
X011336Y004127D01*
X011319Y004111D01*
X011397Y004111D02*
X011447Y004111D01*
X011463Y004127D01*
X011447Y004144D01*
X011397Y004144D01*
X011397Y004161D02*
X011397Y004111D01*
X011397Y004161D02*
X011413Y004177D01*
X011447Y004177D01*
X011507Y004161D02*
X011507Y004127D01*
X011524Y004111D01*
X011574Y004111D01*
X011574Y004077D02*
X011574Y004177D01*
X011524Y004177D01*
X011507Y004161D01*
X011618Y004161D02*
X011618Y004111D01*
X011651Y004111D02*
X011651Y004161D01*
X011634Y004177D01*
X011618Y004161D01*
X011651Y004161D02*
X011668Y004177D01*
X011684Y004177D01*
X011684Y004111D01*
X011728Y004127D02*
X011728Y004161D01*
X011745Y004177D01*
X011778Y004177D01*
X011795Y004161D01*
X011795Y004127D01*
X011778Y004111D01*
X011745Y004111D01*
X011728Y004127D01*
X011839Y004127D02*
X011855Y004111D01*
X011889Y004111D01*
X011905Y004127D01*
X011905Y004194D01*
X011889Y004211D01*
X011855Y004211D01*
X011839Y004194D01*
X011797Y004423D02*
X011814Y004440D01*
X011814Y004473D01*
X011797Y004490D01*
X011747Y004490D01*
X011747Y004523D02*
X011747Y004423D01*
X011797Y004423D01*
X011856Y004490D02*
X011872Y004490D01*
X011906Y004457D01*
X011906Y004490D02*
X011906Y004423D01*
X011949Y004423D02*
X011999Y004423D01*
X012016Y004440D01*
X011999Y004457D01*
X011949Y004457D01*
X011949Y004473D02*
X011949Y004423D01*
X011949Y004473D02*
X011966Y004490D01*
X011999Y004490D01*
X012060Y004473D02*
X012126Y004473D01*
X012126Y004423D02*
X012126Y004523D01*
X012060Y004523D02*
X012060Y004423D01*
X012281Y004423D02*
X012281Y004473D01*
X012297Y004490D01*
X012347Y004490D01*
X012347Y004423D01*
X012391Y004457D02*
X012458Y004457D01*
X012458Y004473D02*
X012441Y004490D01*
X012408Y004490D01*
X012391Y004473D01*
X012391Y004457D01*
X012408Y004423D02*
X012441Y004423D01*
X012458Y004440D01*
X012458Y004473D01*
X012502Y004473D02*
X012502Y004440D01*
X012518Y004423D01*
X012568Y004423D01*
X012568Y004390D02*
X012568Y004490D01*
X012518Y004490D01*
X012502Y004473D01*
X012612Y004440D02*
X012612Y004507D01*
X012629Y004523D01*
X012662Y004523D01*
X012679Y004507D01*
X012679Y004440D01*
X012662Y004423D01*
X012629Y004423D01*
X012612Y004440D01*
X012833Y004440D02*
X012850Y004457D01*
X012883Y004457D01*
X012900Y004473D01*
X012883Y004490D01*
X012833Y004490D01*
X012833Y004440D02*
X012850Y004423D01*
X012900Y004423D01*
X012944Y004423D02*
X012994Y004423D01*
X013010Y004440D01*
X012994Y004457D01*
X012944Y004457D01*
X012944Y004473D02*
X012944Y004423D01*
X012944Y004473D02*
X012960Y004490D01*
X012994Y004490D01*
X013165Y004490D02*
X013215Y004490D01*
X013231Y004473D01*
X013231Y004440D01*
X013215Y004423D01*
X013165Y004423D01*
X013165Y004523D01*
X013275Y004473D02*
X013275Y004457D01*
X013342Y004457D01*
X013342Y004473D02*
X013325Y004490D01*
X013292Y004490D01*
X013275Y004473D01*
X013292Y004423D02*
X013325Y004423D01*
X013342Y004440D01*
X013342Y004473D01*
X013385Y004490D02*
X013436Y004490D01*
X013452Y004473D01*
X013436Y004457D01*
X013402Y004457D01*
X013385Y004440D01*
X013402Y004423D01*
X013452Y004423D01*
X013496Y004423D02*
X013546Y004423D01*
X013563Y004440D01*
X013546Y004457D01*
X013496Y004457D01*
X013496Y004473D02*
X013496Y004423D01*
X013496Y004473D02*
X013513Y004490D01*
X013546Y004490D01*
X013606Y004473D02*
X013606Y004457D01*
X013673Y004457D01*
X013673Y004473D02*
X013656Y004490D01*
X013623Y004490D01*
X013606Y004473D01*
X013623Y004423D02*
X013656Y004423D01*
X013673Y004440D01*
X013673Y004473D01*
X013713Y004423D02*
X013747Y004423D01*
X013730Y004423D02*
X013730Y004523D01*
X013747Y004523D01*
X013791Y004473D02*
X013791Y004457D01*
X013857Y004457D01*
X013857Y004473D02*
X013841Y004490D01*
X013807Y004490D01*
X013791Y004473D01*
X013807Y004423D02*
X013841Y004423D01*
X013857Y004440D01*
X013857Y004473D01*
X013901Y004473D02*
X013918Y004457D01*
X013968Y004457D01*
X013934Y004457D02*
X013901Y004423D01*
X013901Y004473D02*
X013901Y004507D01*
X013918Y004523D01*
X013968Y004523D01*
X013968Y004423D01*
X011703Y004440D02*
X011686Y004423D01*
X011670Y004440D01*
X011653Y004423D01*
X011636Y004440D01*
X011636Y004490D01*
X011576Y004490D02*
X011543Y004490D01*
X011526Y004473D01*
X011526Y004423D01*
X011576Y004423D01*
X011593Y004440D01*
X011576Y004457D01*
X011526Y004457D01*
X011482Y004457D02*
X011449Y004490D01*
X011432Y004490D01*
X011390Y004473D02*
X011373Y004490D01*
X011340Y004490D01*
X011323Y004473D01*
X011323Y004457D01*
X011390Y004457D01*
X011390Y004473D02*
X011390Y004440D01*
X011373Y004423D01*
X011340Y004423D01*
X011482Y004423D02*
X011482Y004490D01*
X011703Y004490D02*
X011703Y004440D01*
X011169Y004423D02*
X011119Y004423D01*
X011102Y004440D01*
X011102Y004473D01*
X011119Y004490D01*
X011169Y004490D01*
X011169Y004390D01*
X011059Y004440D02*
X011059Y004473D01*
X011042Y004490D01*
X011009Y004490D01*
X010992Y004473D01*
X010992Y004457D01*
X011059Y004457D01*
X011059Y004440D02*
X011042Y004423D01*
X011009Y004423D01*
X010948Y004423D02*
X010948Y004490D01*
X010915Y004490D02*
X010898Y004490D01*
X010915Y004490D02*
X010948Y004457D01*
X010746Y004490D02*
X010712Y004490D01*
X010729Y004507D02*
X010729Y004440D01*
X010712Y004423D01*
X010672Y004423D02*
X010672Y004523D01*
X010655Y004490D02*
X010622Y004490D01*
X010605Y004473D01*
X010605Y004423D01*
X010561Y004440D02*
X010561Y004473D01*
X010545Y004490D01*
X010511Y004490D01*
X010495Y004473D01*
X010495Y004457D01*
X010561Y004457D01*
X010561Y004440D02*
X010545Y004423D01*
X010511Y004423D01*
X010655Y004490D02*
X010672Y004473D01*
X010341Y004440D02*
X010324Y004423D01*
X010291Y004423D01*
X010274Y004440D01*
X010230Y004423D02*
X010163Y004423D01*
X010120Y004423D02*
X010120Y004523D01*
X010070Y004523D01*
X010053Y004507D01*
X010053Y004473D01*
X010070Y004457D01*
X010120Y004457D01*
X010086Y004457D02*
X010053Y004423D01*
X010009Y004423D02*
X010009Y004523D01*
X009942Y004423D01*
X009942Y004523D01*
X009788Y004507D02*
X009788Y004440D01*
X009772Y004423D01*
X009738Y004423D01*
X009721Y004440D01*
X009721Y004507D01*
X009738Y004523D01*
X009772Y004523D01*
X009788Y004507D01*
X009678Y004490D02*
X009628Y004490D01*
X009611Y004473D01*
X009611Y004440D01*
X009628Y004423D01*
X009678Y004423D01*
X009678Y004390D02*
X009678Y004490D01*
X009567Y004473D02*
X009551Y004490D01*
X009517Y004490D01*
X009501Y004473D01*
X009501Y004457D01*
X009567Y004457D01*
X009567Y004473D02*
X009567Y004440D01*
X009551Y004423D01*
X009517Y004423D01*
X009457Y004423D02*
X009457Y004490D01*
X009407Y004490D01*
X009390Y004473D01*
X009390Y004423D01*
X009236Y004423D02*
X009236Y004523D01*
X009236Y004473D02*
X009169Y004473D01*
X009169Y004523D02*
X009169Y004423D01*
X009125Y004440D02*
X009109Y004457D01*
X009059Y004457D01*
X009059Y004473D02*
X009059Y004423D01*
X009109Y004423D01*
X009125Y004440D01*
X009109Y004490D02*
X009075Y004490D01*
X009059Y004473D01*
X009015Y004457D02*
X008982Y004490D01*
X008965Y004490D01*
X008923Y004473D02*
X008906Y004490D01*
X008856Y004490D01*
X008856Y004523D02*
X008856Y004423D01*
X008906Y004423D01*
X008923Y004440D01*
X008923Y004473D01*
X009015Y004490D02*
X009015Y004423D01*
X008812Y004440D02*
X008796Y004423D01*
X008779Y004440D01*
X008762Y004423D01*
X008746Y004440D01*
X008746Y004490D01*
X008685Y004490D02*
X008652Y004490D01*
X008635Y004473D01*
X008635Y004423D01*
X008685Y004423D01*
X008702Y004440D01*
X008685Y004457D01*
X008635Y004457D01*
X008591Y004457D02*
X008558Y004490D01*
X008541Y004490D01*
X008499Y004473D02*
X008483Y004490D01*
X008449Y004490D01*
X008433Y004473D01*
X008433Y004457D01*
X008499Y004457D01*
X008499Y004473D02*
X008499Y004440D01*
X008483Y004423D01*
X008449Y004423D01*
X008591Y004423D02*
X008591Y004490D01*
X008812Y004490D02*
X008812Y004440D01*
X008278Y004423D02*
X008212Y004423D01*
X008168Y004423D02*
X008135Y004423D01*
X008151Y004423D02*
X008151Y004490D01*
X008168Y004490D01*
X008151Y004523D02*
X008151Y004540D01*
X008094Y004473D02*
X008094Y004440D01*
X008078Y004423D01*
X008028Y004423D01*
X007984Y004440D02*
X007984Y004473D01*
X007967Y004490D01*
X007934Y004490D01*
X007917Y004473D01*
X007917Y004457D01*
X007984Y004457D01*
X007984Y004440D02*
X007967Y004423D01*
X007934Y004423D01*
X007873Y004423D02*
X007873Y004490D01*
X007823Y004490D01*
X007807Y004473D01*
X007807Y004423D01*
X007763Y004440D02*
X007746Y004423D01*
X007696Y004423D01*
X007652Y004440D02*
X007652Y004473D01*
X007636Y004490D01*
X007602Y004490D01*
X007586Y004473D01*
X007586Y004457D01*
X007652Y004457D01*
X007652Y004440D02*
X007636Y004423D01*
X007602Y004423D01*
X007542Y004423D02*
X007542Y004440D01*
X007525Y004440D01*
X007525Y004423D01*
X007542Y004423D01*
X007542Y004473D02*
X007542Y004490D01*
X007525Y004490D01*
X007525Y004473D01*
X007542Y004473D01*
X007696Y004490D02*
X007746Y004490D01*
X007763Y004473D01*
X007763Y004440D01*
X008028Y004490D02*
X008078Y004490D01*
X008094Y004473D01*
X008278Y004523D02*
X008278Y004423D01*
X007376Y004440D02*
X007360Y004423D01*
X007343Y004440D01*
X007326Y004423D01*
X007310Y004440D01*
X007310Y004490D01*
X007266Y004490D02*
X007266Y004440D01*
X007249Y004423D01*
X007232Y004440D01*
X007216Y004423D01*
X007199Y004440D01*
X007199Y004490D01*
X007155Y004490D02*
X007155Y004440D01*
X007139Y004423D01*
X007122Y004440D01*
X007105Y004423D01*
X007089Y004440D01*
X007089Y004490D01*
X007045Y004440D02*
X007028Y004440D01*
X007028Y004423D01*
X007045Y004423D01*
X007045Y004440D01*
X006990Y004440D02*
X006973Y004423D01*
X006940Y004423D01*
X006923Y004440D01*
X006923Y004473D01*
X006940Y004490D01*
X006973Y004490D01*
X006990Y004473D01*
X006990Y004440D01*
X006879Y004423D02*
X006879Y004523D01*
X006862Y004490D02*
X006829Y004490D01*
X006812Y004473D01*
X006812Y004423D01*
X006769Y004440D02*
X006752Y004423D01*
X006735Y004440D01*
X006719Y004423D01*
X006702Y004440D01*
X006702Y004490D01*
X006658Y004490D02*
X006658Y004423D01*
X006658Y004457D02*
X006625Y004490D01*
X006608Y004490D01*
X006566Y004440D02*
X006549Y004440D01*
X006549Y004423D01*
X006566Y004423D01*
X006566Y004440D01*
X006511Y004440D02*
X006494Y004423D01*
X006461Y004423D01*
X006444Y004440D01*
X006444Y004473D01*
X006461Y004490D01*
X006494Y004490D01*
X006511Y004473D01*
X006511Y004440D01*
X006400Y004457D02*
X006367Y004490D01*
X006350Y004490D01*
X006308Y004473D02*
X006308Y004440D01*
X006292Y004423D01*
X006242Y004423D01*
X006242Y004407D02*
X006242Y004490D01*
X006292Y004490D01*
X006308Y004473D01*
X006275Y004390D02*
X006258Y004390D01*
X006242Y004407D01*
X006198Y004423D02*
X006131Y004523D01*
X006087Y004473D02*
X006087Y004440D01*
X006071Y004423D01*
X006021Y004423D01*
X005977Y004440D02*
X005977Y004473D01*
X005960Y004490D01*
X005927Y004490D01*
X005910Y004473D01*
X005910Y004457D01*
X005977Y004457D01*
X005977Y004440D02*
X005960Y004423D01*
X005927Y004423D01*
X005866Y004423D02*
X005866Y004490D01*
X005833Y004490D02*
X005816Y004490D01*
X005833Y004490D02*
X005866Y004457D01*
X005774Y004490D02*
X005724Y004490D01*
X005708Y004473D01*
X005708Y004423D01*
X005664Y004440D02*
X005647Y004423D01*
X005614Y004423D01*
X005597Y004440D01*
X005597Y004473D01*
X005614Y004490D01*
X005647Y004490D01*
X005664Y004473D01*
X005664Y004440D01*
X005774Y004423D02*
X005774Y004490D01*
X005553Y004473D02*
X005537Y004490D01*
X005503Y004490D01*
X005487Y004473D01*
X005487Y004423D01*
X005443Y004423D02*
X005410Y004423D01*
X005426Y004423D02*
X005426Y004523D01*
X005443Y004523D01*
X005553Y004523D02*
X005553Y004423D01*
X006021Y004490D02*
X006071Y004490D01*
X006087Y004473D01*
X006400Y004490D02*
X006400Y004423D01*
X006769Y004440D02*
X006769Y004490D01*
X006862Y004490D02*
X006879Y004473D01*
X007376Y004490D02*
X007376Y004440D01*
X010163Y004523D02*
X010230Y004523D01*
X010230Y004423D01*
X010230Y004473D02*
X010197Y004473D01*
X010274Y004507D02*
X010291Y004523D01*
X010324Y004523D01*
X010341Y004507D01*
X010341Y004440D01*
D12*
X012490Y006888D02*
X013590Y006888D01*
X013607Y006890D01*
X013624Y006894D01*
X013640Y006901D01*
X013654Y006911D01*
X013667Y006924D01*
X013677Y006938D01*
X013684Y006954D01*
X013688Y006971D01*
X013690Y006988D01*
X013690Y007588D01*
X013688Y007605D01*
X013684Y007622D01*
X013677Y007638D01*
X013667Y007652D01*
X013654Y007665D01*
X013640Y007675D01*
X013624Y007682D01*
X013607Y007686D01*
X013590Y007688D01*
X012490Y007688D01*
X012473Y007686D01*
X012456Y007682D01*
X012440Y007675D01*
X012426Y007665D01*
X012413Y007652D01*
X012403Y007638D01*
X012396Y007622D01*
X012392Y007605D01*
X012390Y007588D01*
X012390Y006988D01*
X012392Y006971D01*
X012396Y006954D01*
X012403Y006938D01*
X012413Y006924D01*
X012426Y006911D01*
X012440Y006901D01*
X012456Y006894D01*
X012473Y006890D01*
X012490Y006888D01*
M02*
