%
M48
M72
T01C0.0197
T02C0.0276
T03C0.0315
T04C0.0354
%
T01
X2665Y1851
X5740Y2413
X7353Y2163
X8353Y1976
X9590Y1788
X7853Y1163
X6228Y1288
X9978Y663
X12915Y2663
X10353Y2913
X5040Y3413
X3790Y2976
X1290Y3101
X2915Y4163
X5040Y4538
X3978Y5101
X3140Y5913
X5728Y6538
X4853Y7163
X3603Y7226
X8915Y5413
X13990Y6163
X14103Y7226
T02
X8803Y1538
X6903Y1538
T03
X9665Y6163
X10665Y6163
X11665Y6163
X11665Y7163
X10665Y7163
X9665Y7163
T04
X14665Y6663
X14665Y5663
X14665Y4663
X14665Y3663
X14665Y2663
X14665Y1663
X3040Y3172
X3040Y4904
M30
